# 3ds Max Wavefront OBJ Exporter v0.97b - (c)2007 guruware
# File Created: 05.06.2017 02:39:45

#
# object SM_BottlePlasticA_01
#

v  3.5157 22.0232 9.2429
v  -3.5157 22.0232 9.2429
v  -3.5157 1.6414 9.2429
v  3.5157 1.6414 9.2429
v  -5.5670 22.0232 8.0121
v  -5.5670 1.6414 8.0121
v  -6.7978 22.0232 5.9608
v  -6.7978 1.6414 5.9608
v  -7.2081 22.0232 3.0889
v  -7.2081 1.6414 3.0889
v  -0.5812 32.2365 4.4491
v  -1.5590 32.2365 3.8757
v  -5.2743 23.6170 7.6611
v  -3.3295 23.6223 8.8350
v  -2.1190 32.2365 2.8902
v  -6.4373 23.6234 5.6973
v  -2.1112 32.2365 1.7567
v  -6.8166 23.6412 2.9491
v  -6.2721 24.5372 0.6663
v  -2.5511 30.5885 0.7548
v  -7.2081 21.9288 -3.0889
v  -7.2081 1.6414 -3.0889
v  -5.5670 1.6414 -8.0121
v  -5.5670 21.9288 -8.0121
v  -3.5157 21.9288 -9.2429
v  -3.5157 1.6414 -9.2429
v  -6.7978 1.6414 -5.9608
v  -6.7978 21.9288 -5.9608
v  -4.8697 22.8856 -7.3148
v  -3.2507 22.8856 -8.2861
v  -5.8780 22.8856 -5.6342
v  -6.2513 22.8856 -3.0209
v  -6.7735 23.3911 -0.1085
v  -5.5967 24.0466 -0.7443
v  -5.0158 25.2067 -0.0000
v  -3.4020 0.4103 8.8326
v  -5.2679 0.4103 7.7130
v  -6.4033 0.4103 5.8207
v  -6.7977 0.4103 3.0598
v  -3.4020 0.4103 -8.8326
v  -3.0611 0.0000 -7.6015
v  -4.3707 0.0000 -6.8158
v  -5.2679 0.4103 -7.7130
v  -5.2198 0.0000 -5.4005
v  -6.4033 0.4103 -5.8207
v  -5.5667 0.0000 -2.9723
v  -6.7977 0.4103 -3.0598
v  -5.5667 0.0000 2.9723
v  -5.2198 0.0000 5.4005
v  -4.3707 0.0000 6.8158
v  -3.0611 0.0000 7.6015
v  3.0611 0.0000 -7.6015
v  3.0611 0.0000 7.6015
v  -2.3947 22.8856 -8.2861
v  -2.4465 21.9832 -9.2429
v  0.5812 32.2365 4.4491
v  0.5522 32.2365 0.2190
v  -0.5522 32.2365 0.2190
v  3.4020 0.4103 8.8326
v  3.5157 1.6414 -9.2429
v  3.4020 0.4103 -8.8326
v  -2.4328 22.8856 -6.5794
v  -2.1088 28.9498 0.1164
v  -1.4552 31.0325 0.1747
v  -1.4437 31.0924 -1.6699
v  -1.4219 29.1754 -1.5069
v  -1.6469 29.1071 -0.4713
v  -1.4512 31.0325 -0.4279
v  1.4512 31.0325 -0.4279
v  1.4437 31.0924 -1.6699
v  -1.0155 30.7461 -3.8969
v  -1.0155 28.7929 -3.2520
v  -1.0155 29.6786 -5.9595
v  -1.0155 28.0196 -4.7462
v  1.0155 29.6786 -5.9595
v  1.0155 30.7461 -3.8969
v  -1.0155 28.0528 -7.5853
v  -1.0155 26.8394 -5.9263
v  1.0155 28.0528 -7.5853
v  -1.0155 25.9901 -8.6529
v  -1.0155 25.4089 -6.6667
v  1.0155 25.9901 -8.6529
v  -1.6231 23.7025 -9.0224
v  -1.4288 24.1169 -6.8981
v  1.6231 23.7025 -9.0224
v  -1.8492 23.2258 -8.4329
v  -2.0345 23.0990 -6.8424
v  -1.9230 22.6040 -9.1590
v  1.9230 22.6040 -9.1590
v  1.0155 28.7929 -3.2520
v  1.4219 29.1754 -1.5069
v  1.0155 25.4089 -6.6667
v  1.0155 26.8394 -5.9263
v  2.4328 22.8856 -6.5794
v  2.0345 23.0990 -6.8424
v  6.2513 22.8856 -3.0209
v  1.4552 31.0325 0.1747
v  -1.5377 32.2365 0.7790
v  5.5670 1.6414 8.0121
v  5.5670 22.0232 8.0121
v  6.7978 1.6414 5.9608
v  6.7978 22.0232 5.9608
v  7.2081 1.6414 3.0889
v  7.2081 22.0232 3.0889
v  3.3295 23.6223 8.8350
v  5.2743 23.6170 7.6611
v  1.5590 32.2365 3.8757
v  6.4373 23.6234 5.6973
v  2.1190 32.2365 2.8902
v  6.8166 23.6412 2.9491
v  2.1112 32.2365 1.7567
v  6.2721 24.5372 0.6663
v  2.5511 30.5885 0.7548
v  7.2081 1.6414 -3.0889
v  7.2081 21.9288 -3.0889
v  5.5670 1.6414 -8.0121
v  3.5157 21.9288 -9.2429
v  5.5670 21.9288 -8.0121
v  6.7978 1.6414 -5.9608
v  6.7978 21.9288 -5.9608
v  4.8697 22.8856 -7.3148
v  3.2507 22.8856 -8.2861
v  5.8780 22.8856 -5.6342
v  5.5967 24.0466 -0.7443
v  6.7735 23.3911 -0.1085
v  5.0158 25.2067 -0.0000
v  5.2679 0.4103 7.7130
v  6.4033 0.4103 5.8207
v  6.7977 0.4103 3.0598
v  5.2679 0.4103 -7.7130
v  4.3707 0.0000 -6.8158
v  6.4033 0.4103 -5.8207
v  5.2198 0.0000 -5.4005
v  6.7977 0.4103 -3.0598
v  5.5667 0.0000 -2.9723
v  5.5667 0.0000 2.9723
v  5.2198 0.0000 5.4005
v  4.3707 0.0000 6.8158
v  2.4465 21.9832 -9.2429
v  2.3947 22.8856 -8.2861
v  2.1088 28.9498 0.1164
v  1.6469 29.1071 -0.4713
v  1.0155 28.0196 -4.7462
v  1.4288 24.1169 -6.8981
v  1.8492 23.2258 -8.4329
v  1.5377 32.2365 0.7790
v  1.7614 32.2365 2.3254
v  1.5254 32.2365 1.4447
v  1.5254 35.0692 1.4447
v  1.7614 35.0692 2.3254
v  0.8807 32.2365 0.7999
v  0.8807 35.0692 0.7999
v  -0.0000 32.2365 0.5639
v  -0.0000 35.0692 0.5639
v  -0.8807 32.2365 0.7999
v  -0.8807 35.0692 0.7999
v  -1.5254 32.2365 1.4447
v  -1.5254 35.0692 1.4447
v  -1.7614 32.2365 2.3254
v  -1.7614 35.0692 2.3254
v  -1.5254 32.2365 3.2061
v  -1.5254 35.0692 3.2061
v  -0.8807 32.2365 3.8508
v  -0.8807 35.0692 3.8508
v  -0.0000 32.2365 4.0868
v  -0.0000 35.0692 4.0868
v  0.8807 32.2365 3.8508
v  0.8807 35.0692 3.8508
v  1.5254 32.2365 3.2061
v  1.5254 35.0692 3.2061
# 170 vertices

vn 0.2677 0.1318 0.9544
vn -0.2677 0.1318 0.9544
vn -0.2634 -0.1613 0.9511
vn 0.2634 -0.1613 0.9511
vn -0.6993 0.1358 0.7018
vn -0.6979 -0.1607 0.6979
vn -0.9331 0.1285 0.3360
vn -0.9302 -0.1599 0.3303
vn -0.9900 0.1248 0.0659
vn -0.9847 -0.1594 0.0700
vn -0.1315 0.8281 0.5449
vn -0.3885 0.8385 0.3820
vn -0.6535 0.3952 0.6456
vn -0.2535 0.3798 0.8896
vn -0.5486 0.8267 0.1253
vn -0.8733 0.3780 0.3073
vn -0.5489 0.8217 -0.1534
vn -0.9386 0.3447 0.0138
vn -0.8011 0.5370 -0.2644
vn -0.6473 0.3715 -0.6656
vn -0.9329 0.3424 -0.1115
vn -0.9847 -0.1594 -0.0700
vn -0.6979 -0.1607 -0.6979
vn -0.6570 0.3696 -0.6570
vn -0.2562 0.3640 -0.8955
vn -0.2634 -0.1613 -0.9511
vn -0.9302 -0.1599 -0.3303
vn -0.8752 0.3709 -0.3107
vn -0.2996 0.9058 -0.2996
vn -0.1139 0.9044 -0.4112
vn -0.3936 0.9086 -0.1397
vn -0.4374 0.8801 -0.1848
vn -0.8447 0.5096 -0.1636
vn -0.3480 0.7784 -0.5225
vn -0.3616 0.4995 -0.7872
vn -0.1961 -0.6787 0.7078
vn -0.5182 -0.6804 0.5182
vn -0.6873 -0.6841 0.2440
vn -0.7146 -0.6977 0.0508
vn -0.1961 -0.6787 -0.7078
vn -0.0482 -0.9836 -0.1740
vn -0.1268 -0.9838 -0.1268
vn -0.5182 -0.6804 -0.5182
vn -0.1664 -0.9843 -0.0591
vn -0.6873 -0.6841 -0.2440
vn -0.1664 -0.9860 -0.0118
vn -0.7146 -0.6977 -0.0508
vn -0.1664 -0.9860 0.0118
vn -0.1664 -0.9843 0.0591
vn -0.1268 -0.9838 0.1268
vn -0.0482 -0.9836 0.1740
vn 0.0482 -0.9836 -0.1740
vn 0.0482 -0.9836 0.1740
vn -0.3209 0.8821 -0.3447
vn -0.1045 0.3136 -0.9438
vn 0.1315 0.8281 0.5449
vn 0.1090 0.7079 -0.6979
vn -0.1090 0.7079 -0.6979
vn 0.1961 -0.6787 0.7078
vn 0.2634 -0.1613 -0.9511
vn 0.1961 -0.6787 -0.7078
vn -0.0787 0.9945 0.0697
vn -0.3285 0.0346 -0.9439
vn -0.5597 0.5374 -0.6307
vn -0.7067 0.7000 -0.1027
vn -0.7162 -0.6870 -0.1228
vn -0.6103 -0.6639 -0.4321
vn -0.6755 0.7373 0.0135
vn 0.6755 0.7373 0.0135
vn 0.7067 0.7000 -0.1027
vn -0.6471 0.7058 -0.2882
vn -0.7080 -0.6882 0.1586
vn -0.6742 0.5961 -0.4360
vn -0.7433 -0.5400 0.3949
vn 0.6742 0.5961 -0.4360
vn 0.6471 0.7058 -0.2882
vn -0.6742 0.4360 -0.5961
vn -0.7433 -0.3949 0.5400
vn 0.6742 0.4360 -0.5961
vn -0.6348 0.3126 -0.7066
vn -0.6996 -0.1183 0.7047
vn 0.6348 0.3126 -0.7066
vn -0.6432 0.3082 -0.7010
vn -0.6507 0.2533 0.7159
vn 0.6432 0.3082 -0.7010
vn -0.8353 0.5203 -0.1776
vn -0.3901 0.8089 0.4398
vn -0.3915 0.3680 -0.8434
vn 0.3915 0.3680 -0.8434
vn 0.7080 -0.6882 0.1586
vn 0.7162 -0.6870 -0.1228
vn 0.6996 -0.1183 0.7047
vn 0.7433 -0.3949 0.5400
vn 0.0787 0.9945 0.0697
vn 0.3901 0.8089 0.4398
vn 0.4374 0.8801 -0.1848
vn 0.5597 0.5374 -0.6307
vn -0.4021 0.8015 -0.4427
vn 0.6979 -0.1607 0.6979
vn 0.6993 0.1358 0.7018
vn 0.9302 -0.1599 0.3303
vn 0.9331 0.1285 0.3360
vn 0.9847 -0.1594 0.0700
vn 0.9900 0.1248 0.0659
vn 0.2535 0.3798 0.8896
vn 0.6535 0.3952 0.6456
vn 0.3885 0.8385 0.3820
vn 0.8733 0.3780 0.3073
vn 0.5486 0.8267 0.1253
vn 0.9386 0.3447 0.0138
vn 0.5489 0.8217 -0.1534
vn 0.8011 0.5370 -0.2644
vn 0.6473 0.3715 -0.6656
vn 0.9847 -0.1594 -0.0700
vn 0.9329 0.3424 -0.1115
vn 0.6979 -0.1607 -0.6979
vn 0.2562 0.3640 -0.8955
vn 0.6570 0.3696 -0.6570
vn 0.9302 -0.1599 -0.3303
vn 0.8752 0.3709 -0.3107
vn 0.2996 0.9058 -0.2996
vn 0.1139 0.9044 -0.4112
vn 0.3936 0.9086 -0.1397
vn 0.3480 0.7784 -0.5225
vn 0.8447 0.5096 -0.1636
vn 0.3616 0.4995 -0.7872
vn 0.5182 -0.6804 0.5182
vn 0.6873 -0.6841 0.2440
vn 0.7146 -0.6977 0.0508
vn 0.5182 -0.6804 -0.5182
vn 0.1268 -0.9838 -0.1268
vn 0.6873 -0.6841 -0.2440
vn 0.1664 -0.9843 -0.0591
vn 0.7146 -0.6977 -0.0508
vn 0.1664 -0.9860 -0.0118
vn 0.1664 -0.9860 0.0118
vn 0.1664 -0.9843 0.0591
vn 0.1268 -0.9838 0.1268
vn 0.1045 0.3136 -0.9438
vn 0.3209 0.8821 -0.3447
vn 0.3285 0.0346 -0.9439
vn 0.6103 -0.6639 -0.4321
vn 0.7433 -0.5400 0.3949
vn 0.6507 0.2533 0.7159
vn 0.8353 0.5203 -0.1776
vn 0.4021 0.8015 -0.4427
vn 1.0000 0.0000 0.0000
vn 0.8660 -0.0000 -0.5000
vn 0.6557 0.6532 -0.3786
vn 0.7572 0.6532 -0.0000
vn 0.5000 -0.0000 -0.8660
vn 0.3785 0.6533 -0.6557
vn 0.0000 -0.0000 -1.0000
vn 0.0000 0.6533 -0.7571
vn -0.5000 -0.0000 -0.8660
vn -0.3786 0.6532 -0.6558
vn -0.8660 -0.0000 -0.5000
vn -0.6557 0.6532 -0.3786
vn -1.0000 0.0000 -0.0000
vn -0.7571 0.6533 -0.0000
vn -0.8660 0.0000 0.5000
vn -0.6557 0.6532 0.3785
vn -0.5000 0.0000 0.8660
vn -0.3785 0.6533 0.6557
vn 0.0000 0.0000 1.0000
vn -0.0000 0.6532 0.7572
vn 0.5000 0.0000 0.8660
vn 0.3786 0.6532 0.6557
vn 0.8660 0.0000 0.5000
vn 0.6557 0.6532 0.3786
# 170 vertex normals

vt 0.0047 0.2568 0.0000
vt 0.0047 0.2068 0.0000
vt 0.1505 0.2061 0.0000
vt 0.1505 0.2554 0.0000
vt 0.0047 0.1902 0.0000
vt 0.1505 0.1900 0.0000
vt 0.0047 0.1735 0.0000
vt 0.1505 0.1737 0.0000
vt 0.0047 0.1532 0.0000
vt 0.1505 0.1534 0.0000
vt 0.2655 0.1380 0.0000
vt 0.2626 0.1458 0.0000
vt 0.1925 0.1291 0.0000
vt 0.1980 0.1144 0.0000
vt 0.2618 0.1539 0.0000
vt 0.1909 0.1449 0.0000
vt 0.2630 0.1620 0.0000
vt 0.1928 0.1644 0.0000
vt 0.2024 0.1793 0.0000
vt 0.2525 0.1713 0.0000
vt 0.0047 0.1093 0.0000
vt 0.1505 0.1094 0.0000
vt 0.1505 0.0730 0.0000
vt 0.0047 0.0719 0.0000
vt 0.0047 0.0550 0.0000
vt 0.1505 0.0570 0.0000
vt 0.1505 0.0892 0.0000
vt 0.0047 0.0888 0.0000
vt 0.3915 0.0535 0.0000
vt 0.3866 0.0413 0.0000
vt 0.3947 0.0359 0.0000
vt 0.4011 0.0521 0.0000
vt 0.3905 0.0671 0.0000
vt 0.3999 0.0696 0.0000
vt 0.3822 0.0837 0.0000
vt 0.3908 0.0884 0.0000
vt 0.1956 0.2075 0.0000
vt 0.1860 0.2086 0.0000
vt 0.1943 0.1861 0.0000
vt 0.2037 0.1908 0.0000
vt 0.1809 0.1649 0.0000
vt 0.1812 0.1262 0.0000
vt 0.1873 0.1094 0.0000
vt 0.1792 0.1438 0.0000
vt 0.2122 0.1846 0.0000
vt 0.1598 0.2062 0.0000
vt 0.1598 0.1902 0.0000
vt 0.1598 0.1741 0.0000
vt 0.1598 0.1536 0.0000
vt 0.1598 0.0576 0.0000
vt 0.1691 0.0581 0.0000
vt 0.1691 0.0730 0.0000
vt 0.1598 0.0730 0.0000
vt 0.1691 0.0885 0.0000
vt 0.1598 0.0889 0.0000
vt 0.1691 0.1090 0.0000
vt 0.1598 0.1092 0.0000
vt 0.1691 0.1539 0.0000
vt 0.1691 0.1745 0.0000
vt 0.1691 0.1905 0.0000
vt 0.1691 0.2062 0.0000
vt 0.2874 0.2751 0.0000
vt 0.1792 0.2751 0.0000
vt 0.2718 0.2162 0.0000
vt 0.2874 0.2315 0.0000
vt 0.3820 0.0373 0.0000
vt 0.3889 0.0308 0.0000
vt 0.1902 0.0101 0.0000
vt 0.1984 0.0101 0.0000
vt 0.1982 0.0402 0.0000
vt 0.1904 0.0402 0.0000
vt 0.1691 0.2551 0.0000
vt 0.1598 0.2552 0.0000
vt 0.1505 0.0070 0.0000
vt 0.1598 0.0091 0.0000
vt 0.3745 0.0474 0.0000
vt 0.2457 0.1823 0.0000
vt 0.2601 0.1767 0.0000
vt 0.3320 0.2226 0.0000
vt 0.3452 0.2202 0.0000
vt 0.3465 0.2286 0.0000
vt 0.3324 0.2308 0.0000
vt 0.3113 0.2309 0.0000
vt 0.3121 0.2227 0.0000
vt 0.3294 0.2075 0.0000
vt 0.3441 0.2058 0.0000
vt 0.3291 0.1921 0.0000
vt 0.3432 0.1921 0.0000
vt 0.3152 0.1921 0.0000
vt 0.3149 0.2076 0.0000
vt 0.3295 0.1773 0.0000
vt 0.3436 0.1786 0.0000
vt 0.3154 0.1772 0.0000
vt 0.3303 0.1619 0.0000
vt 0.3454 0.1655 0.0000
vt 0.3152 0.1618 0.0000
vt 0.3339 0.1459 0.0000
vt 0.3477 0.1545 0.0000
vt 0.3105 0.1460 0.0000
vt 0.3385 0.1441 0.0000
vt 0.3499 0.1457 0.0000
vt 0.3354 0.1377 0.0000
vt 0.3080 0.1381 0.0000
vt 0.3585 0.2032 0.0000
vt 0.3645 0.2141 0.0000
vt 0.3595 0.1703 0.0000
vt 0.3578 0.1805 0.0000
vt 0.3510 0.1423 0.0000
vt 0.3779 0.1621 0.0000
vt 0.3738 0.1619 0.0000
vt 0.3411 0.1407 0.0000
vt 0.3386 0.1327 0.0000
vt 0.3463 0.0282 0.0000
vt 0.3092 0.0334 0.0000
vt 0.3469 0.2339 0.0000
vt 0.3323 0.2348 0.0000
vt 0.3111 0.2350 0.0000
vt 0.2661 0.1693 0.0000
vt 0.2708 0.1759 0.0000
vt 0.1505 0.2715 0.0000
vt 0.0047 0.2735 0.0000
vt 0.1505 0.2878 0.0000
vt 0.0047 0.2903 0.0000
vt 0.1505 0.3080 0.0000
vt 0.0047 0.3106 0.0000
vt 0.2702 0.1311 0.0000
vt 0.2248 0.0758 0.0000
vt 0.2368 0.0656 0.0000
vt 0.2763 0.1258 0.0000
vt 0.2512 0.0586 0.0000
vt 0.2835 0.1221 0.0000
vt 0.2705 0.0534 0.0000
vt 0.2910 0.1202 0.0000
vt 0.2888 0.0562 0.0000
vt 0.2957 0.1067 0.0000
vt 0.3141 0.1247 0.0000
vt 0.3068 0.1221 0.0000
vt 0.3035 0.1119 0.0000
vt 0.3231 0.1188 0.0000
vt 0.1505 0.3519 0.0000
vt 0.0047 0.3547 0.0000
vt 0.1505 0.3885 0.0000
vt 0.1505 0.4052 0.0000
vt 0.0047 0.4099 0.0000
vt 0.0047 0.3928 0.0000
vt 0.1505 0.3721 0.0000
vt 0.0047 0.3756 0.0000
vt 0.3351 0.0142 0.0000
vt 0.3333 0.0047 0.0000
vt 0.3507 0.0054 0.0000
vt 0.3482 0.0148 0.0000
vt 0.3227 0.0198 0.0000
vt 0.3175 0.0117 0.0000
vt 0.3040 0.0260 0.0000
vt 0.3008 0.0514 0.0000
vt 0.2909 0.0454 0.0000
vt 0.3679 0.0954 0.0000
vt 0.2658 0.0432 0.0000
vt 0.2301 0.0560 0.0000
vt 0.2165 0.0676 0.0000
vt 0.2460 0.0482 0.0000
vt 0.2984 0.0629 0.0000
vt 0.1598 0.2711 0.0000
vt 0.1598 0.2872 0.0000
vt 0.1598 0.3076 0.0000
vt 0.1691 0.0124 0.0000
vt 0.1598 0.4032 0.0000
vt 0.1598 0.3877 0.0000
vt 0.1691 0.3870 0.0000
vt 0.1691 0.3993 0.0000
vt 0.1598 0.3721 0.0000
vt 0.1691 0.3722 0.0000
vt 0.1598 0.3520 0.0000
vt 0.1691 0.3521 0.0000
vt 0.1691 0.3073 0.0000
vt 0.1691 0.2868 0.0000
vt 0.1691 0.2708 0.0000
vt 0.3574 0.0092 0.0000
vt 0.3535 0.0179 0.0000
vt 0.3594 0.1007 0.0000
vt 0.3032 0.0966 0.0000
vt 0.2975 0.2283 0.0000
vt 0.2990 0.2203 0.0000
vt 0.3004 0.2059 0.0000
vt 0.3009 0.1921 0.0000
vt 0.3012 0.1779 0.0000
vt 0.3008 0.1652 0.0000
vt 0.2983 0.1557 0.0000
vt 0.3050 0.1445 0.0000
vt 0.2942 0.1486 0.0000
vt 0.3687 0.2199 0.0000
vt 0.3575 0.1921 0.0000
vt 0.3659 0.1646 0.0000
vt 0.3045 0.1333 0.0000
vt 0.3015 0.1415 0.0000
vt 0.2909 0.1468 0.0000
vt 0.2954 0.2332 0.0000
vt 0.3736 0.2224 0.0000
vt 0.2989 0.1202 0.0000
vt 0.3281 0.1124 0.0000
vt 0.1832 0.0142 0.0000
vt 0.1834 0.0362 0.0000
vt 0.1793 0.0293 0.0000
vt 0.1792 0.0212 0.0000
vt 0.2054 0.0142 0.0000
vt 0.2053 0.0362 0.0000
vt 0.2094 0.0212 0.0000
vt 0.2093 0.0293 0.0000
vt 0.0047 0.0047 0.0000
vt 0.8572 0.1779 0.0000
vt 0.8676 0.1779 0.0000
vt 0.8676 0.2100 0.0000
vt 0.8572 0.2100 0.0000
vt 0.8780 0.1779 0.0000
vt 0.8780 0.2100 0.0000
vt 0.8883 0.1779 0.0000
vt 0.8883 0.2100 0.0000
vt 0.7641 0.1779 0.0000
vt 0.7744 0.1779 0.0000
vt 0.7744 0.2100 0.0000
vt 0.7641 0.2100 0.0000
vt 0.7848 0.1779 0.0000
vt 0.7848 0.2100 0.0000
vt 0.7951 0.1779 0.0000
vt 0.7951 0.2100 0.0000
vt 0.8055 0.1779 0.0000
vt 0.8055 0.2100 0.0000
vt 0.8159 0.1779 0.0000
vt 0.8159 0.2100 0.0000
vt 0.8262 0.1779 0.0000
vt 0.8262 0.2100 0.0000
vt 0.8365 0.1779 0.0000
vt 0.8365 0.2100 0.0000
vt 0.8469 0.1779 0.0000
vt 0.8469 0.2100 0.0000
vt 0.9878 0.2076 0.0000
vt 0.9704 0.2176 0.0000
vt 0.9878 0.1876 0.0000
vt 0.9904 0.1976 0.0000
vt 0.2122 0.2930 0.0000
vt 0.1949 0.2905 0.0000
vt 0.1848 0.2844 0.0000
vt 0.2718 0.2905 0.0000
vt 0.2545 0.2930 0.0000
vt 0.2818 0.2844 0.0000
vt 0.1792 0.2315 0.0000
vt 0.1848 0.2222 0.0000
vt 0.1949 0.2162 0.0000
vt 0.2122 0.2137 0.0000
vt 0.2545 0.2137 0.0000
vt 0.2818 0.2222 0.0000
vt 0.0047 0.0475 0.0000
vt 0.0047 0.0123 0.0000
vt 0.9804 0.2149 0.0000
vt 0.9531 0.1876 0.0000
vt 0.9704 0.1776 0.0000
vt 0.9605 0.2149 0.0000
vt 0.9531 0.2076 0.0000
vt 0.9505 0.1976 0.0000
vt 0.9605 0.1803 0.0000
vt 0.9804 0.1803 0.0000
# 261 texture coords

o SM_BottlePlasticA_01
g SM_BottlePlasticA_01
s 1
f 1/1/1 2/2/2 3/3/3 4/4/4 
f 2/2/2 5/5/5 6/6/6 3/3/3 
f 5/5/5 7/7/7 8/8/8 6/6/6 
f 7/7/7 9/9/9 10/10/10 8/8/8 
f 11/11/11 12/12/12 13/13/13 14/14/14 
f 12/12/12 15/15/15 16/16/16 13/13/13 
f 15/15/15 17/17/17 18/18/18 16/16/16 
f 19/19/19 18/18/18 17/17/17 20/20/20 
f 10/10/10 9/9/9 21/21/21 22/22/22 
f 23/23/23 24/24/24 25/25/25 26/26/26 
f 27/27/27 28/28/28 24/24/24 23/23/23 
f 22/22/22 21/21/21 28/28/28 27/27/27 
f 29/29/29 30/30/30 25/31/25 24/32/24 
f 31/33/31 29/29/29 24/32/24 28/34/28 
f 32/35/32 31/33/31 28/34/28 21/36/21 
f 32/37/32 21/38/21 33/39/33 34/40/34 
f 33/39/33 9/41/9 18/18/18 19/19/19 
f 5/42/5 2/43/2 14/14/14 13/13/13 
f 7/44/7 5/42/5 13/13/13 16/16/16 
f 9/41/9 7/44/7 16/16/16 18/18/18 
f 19/19/19 35/45/35 34/40/34 33/39/33 
f 21/38/21 9/41/9 33/39/33 
f 36/46/36 3/3/3 6/6/6 37/47/37 
f 37/47/37 6/6/6 8/8/8 38/48/38 
f 38/48/38 8/8/8 10/10/10 39/49/39 
f 40/50/40 41/51/41 42/52/42 43/53/43 
f 43/53/43 42/52/42 44/54/44 45/55/45 
f 45/55/45 44/54/44 46/56/46 47/57/47 
f 47/57/47 46/56/46 48/58/48 39/49/39 
f 39/49/39 48/58/48 49/59/49 38/48/38 
f 38/48/38 49/59/49 50/60/50 37/47/37 
f 37/47/37 50/60/50 51/61/51 36/46/36 
f 39/49/39 10/10/10 22/22/22 47/57/47 
f 43/53/43 23/23/23 26/26/26 40/50/40 
f 45/55/45 27/27/27 23/23/23 43/53/43 
f 47/57/47 22/22/22 27/27/27 45/55/45 
f 52/62/52 53/63/53 44/64/44 41/65/41 
f 30/30/30 54/66/54 55/67/55 25/31/25 
f 11/68/11 56/69/56 57/70/57 58/71/58 
f 36/46/36 51/61/51 53/72/53 59/73/59 
f 40/50/40 26/26/26 60/74/60 61/75/61 
f 62/76/62 54/66/54 30/30/30 29/29/29 
f 63/77/63 20/20/20 64/78/64 
f 65/79/65 66/80/66 67/81/67 68/82/68 
f 65/79/65 68/82/68 69/83/69 70/84/70 
f 66/80/66 65/79/65 71/85/71 72/86/72 
f 72/86/72 71/85/71 73/87/73 74/88/74 
f 75/89/75 73/87/73 71/85/71 76/90/76 
f 74/88/74 73/87/73 77/91/77 78/92/78 
f 77/91/77 73/87/73 75/89/75 79/93/79 
f 78/92/78 77/91/77 80/94/80 81/95/81 
f 80/94/80 77/91/77 79/93/79 82/96/82 
f 81/95/81 80/94/80 83/97/83 84/98/84 
f 85/99/85 83/97/83 80/94/80 82/96/82 
f 86/100/86 87/101/87 84/98/84 83/97/83 
f 88/102/88 83/97/83 85/99/85 89/103/89 
f 66/80/66 72/86/72 90/104/90 91/105/91 
f 81/95/81 92/106/92 93/107/93 78/92/78 
f 87/101/87 62/108/62 94/109/94 95/110/95 
f 54/111/54 86/100/86 88/102/88 55/112/55 
f 62/108/62 87/101/87 86/100/86 54/111/54 
f 83/97/83 88/102/88 86/100/86 
f 94/113/94 62/76/62 32/35/32 96/114/96 
f 31/33/31 32/35/32 62/76/62 
f 29/29/29 31/33/31 62/76/62 
f 67/81/67 63/115/63 64/116/64 68/82/68 
f 97/117/97 69/83/69 68/82/68 64/116/64 
f 20/20/20 98/118/98 64/78/64 
f 17/17/17 98/118/98 20/20/20 
f 98/118/98 58/119/58 64/78/64 
f 20/20/20 63/77/63 35/45/35 19/19/19 
f 1/1/1 4/4/4 99/120/99 100/121/100 
f 100/121/100 99/120/99 101/122/101 102/123/102 
f 102/123/102 101/122/101 103/124/103 104/125/104 
f 56/126/56 105/127/105 106/128/106 107/129/107 
f 107/129/107 106/128/106 108/130/108 109/131/109 
f 109/131/109 108/130/108 110/132/110 111/133/111 
f 112/134/112 113/135/113 111/133/111 110/132/110 
f 58/136/58 57/137/57 97/138/97 64/139/64 
f 103/124/103 114/140/114 115/141/115 104/125/104 
f 116/142/116 60/143/60 117/144/117 118/145/118 
f 119/146/119 116/142/116 118/145/118 120/147/120 
f 114/140/114 119/146/119 120/147/120 115/141/115 
f 121/148/121 118/149/118 117/150/117 122/151/122 
f 123/152/123 120/153/120 118/149/118 121/148/121 
f 96/114/96 115/154/115 120/153/120 123/152/123 
f 96/114/96 124/155/124 125/156/125 115/154/115 
f 14/14/14 105/127/105 56/126/56 11/11/11 
f 124/155/124 96/114/96 32/35/32 34/157/34 
f 125/156/125 112/134/112 110/132/110 104/158/104 
f 100/159/100 106/128/106 105/127/105 1/160/1 
f 102/161/102 108/130/108 106/128/106 100/159/100 
f 104/158/104 110/132/110 108/130/108 102/161/102 
f 112/134/112 125/156/125 124/155/124 126/162/126 
f 115/154/115 125/156/125 104/158/104 
f 59/73/59 4/4/4 3/3/3 36/46/36 
f 59/73/59 127/163/127 99/120/99 4/4/4 
f 127/163/127 128/164/128 101/122/101 99/120/99 
f 128/164/128 129/165/129 103/124/103 101/122/101 
f 40/50/40 61/75/61 52/166/52 41/51/41 
f 61/167/61 130/168/130 131/169/131 52/170/52 
f 130/168/130 132/171/132 133/172/133 131/169/131 
f 132/171/132 134/173/134 135/174/135 133/172/133 
f 134/173/134 129/165/129 136/175/136 135/174/135 
f 129/165/129 128/164/128 137/176/137 136/175/136 
f 128/164/128 127/163/127 138/177/138 137/176/137 
f 127/163/127 59/73/59 53/72/53 138/177/138 
f 129/165/129 134/173/134 114/140/114 103/124/103 
f 130/168/130 61/167/61 60/143/60 116/142/116 
f 132/171/132 130/168/130 116/142/116 119/146/119 
f 134/173/134 132/171/132 119/146/119 114/140/114 
f 122/151/122 117/150/117 139/178/139 140/179/140 
f 14/14/14 2/43/2 1/160/1 105/127/105 
f 34/157/34 35/180/35 126/162/126 124/155/124 
f 94/113/94 121/148/121 122/151/122 140/179/140 
f 141/181/141 97/138/97 113/135/113 
f 70/84/70 69/83/69 142/182/142 91/183/91 
f 91/183/91 90/184/90 76/90/76 70/84/70 
f 71/85/71 65/79/65 70/84/70 76/90/76 
f 90/184/90 143/185/143 75/89/75 76/90/76 
f 143/185/143 93/186/93 79/93/79 75/89/75 
f 93/186/93 92/187/92 82/96/82 79/93/79 
f 92/187/92 144/188/144 85/99/85 82/96/82 
f 145/189/145 85/99/85 144/188/144 95/190/95 
f 67/81/67 66/80/66 91/105/91 142/191/142 
f 74/88/74 143/192/143 90/104/90 72/86/72 
f 74/88/74 78/92/78 93/107/93 143/192/143 
f 84/98/84 144/193/144 92/106/92 81/95/81 
f 84/98/84 87/101/87 95/110/95 144/193/144 
f 88/102/88 89/103/89 139/194/139 55/112/55 
f 140/195/140 139/194/139 89/103/89 145/189/145 
f 94/196/94 140/195/140 145/189/145 95/190/95 
f 85/99/85 145/189/145 89/103/89 
f 123/152/123 94/113/94 96/114/96 
f 121/148/121 94/113/94 123/152/123 
f 142/182/142 69/83/69 97/117/97 141/197/141 
f 67/81/67 142/191/142 141/198/141 63/115/63 
f 113/135/113 97/138/97 146/199/146 
f 111/133/111 113/135/113 146/199/146 
f 146/199/146 97/138/97 57/137/57 
f 35/180/35 63/200/63 141/181/141 126/162/126 
f 113/135/113 112/134/112 126/162/126 141/181/141 
f 12/201/12 98/202/98 17/203/17 15/204/15 
f 11/68/11 58/71/58 98/202/98 12/201/12 
f 57/70/57 56/69/56 107/205/107 146/206/146 
f 146/206/146 107/205/107 109/207/109 111/208/111 
f 25/25/25 117/209/117 60/74/60 26/26/26 
f 147/210/147 148/211/148 149/212/149 150/213/150 
f 148/211/148 151/214/151 152/215/152 149/212/149 
f 151/214/151 153/216/153 154/217/154 152/215/152 
f 153/218/153 155/219/155 156/220/156 154/221/154 
f 155/219/155 157/222/157 158/223/158 156/220/156 
f 157/222/157 159/224/159 160/225/160 158/223/158 
f 159/224/159 161/226/161 162/227/162 160/225/160 
f 161/226/161 163/228/163 164/229/164 162/227/162 
f 163/228/163 165/230/165 166/231/166 164/229/164 
f 165/230/165 167/232/167 168/233/168 166/231/166 
f 167/232/167 169/234/169 170/235/170 168/233/168 
f 169/234/169 147/210/147 150/213/150 170/235/170 
s 2
f 149/236/149 154/237/154 170/238/170 150/239/150 
s 1
f 136/240/136 137/241/137 138/242/138 53/63/53 
f 133/243/133 135/244/135 136/240/136 53/63/53 
f 52/62/52 131/245/131 133/243/133 53/63/53 
f 53/63/53 51/246/51 50/247/50 
f 53/63/53 50/247/50 49/248/49 48/249/48 
f 53/63/53 48/249/48 46/250/46 44/64/44 
f 44/64/44 42/251/42 41/65/41 
f 25/25/25 55/252/55 139/253/139 117/209/117 
s 2
f 149/236/149 152/254/152 154/237/154 
f 154/237/154 162/255/162 166/256/166 170/238/170 
f 154/237/154 156/257/156 158/258/158 
f 154/237/154 158/258/158 160/259/160 162/255/162 
f 162/255/162 164/260/164 166/256/166 
f 166/256/166 168/261/168 170/238/170 
# 152 polygons - 22 triangles

