# 3ds Max Wavefront OBJ Exporter v0.97b - (c)2007 guruware
# File Created: 05.06.2017 02:39:46

#
# object SM_BottlePlasticD_02
#

v  1.2886 22.2492 4.9484
v  1.2886 22.7107 1.0491
v  -1.2886 22.7107 1.0491
v  -1.2886 22.2492 4.9484
v  1.2886 0.6745 6.6700
v  1.2886 20.1854 6.6700
v  -1.2886 20.1854 6.6700
v  -1.2886 0.6745 6.6700
v  3.0418 0.6745 4.9200
v  3.0418 21.1296 -0.6725
v  3.0418 20.4756 4.9200
v  -1.2886 0.6745 -6.6700
v  -1.2886 21.2746 -6.6700
v  1.2886 21.2746 -6.6700
v  1.2886 0.6745 -6.6700
v  -3.0417 0.6745 -4.9200
v  -3.0417 21.1296 -0.6725
v  -3.0417 21.2746 -4.9200
v  -2.6034 21.8058 4.9413
v  -2.3850 21.3930 6.0198
v  -1.2886 21.5763 6.2396
v  1.2886 21.5763 6.2396
v  2.3851 21.3930 6.0198
v  2.6035 21.8058 4.9413
v  2.6035 22.2647 1.0562
v  2.5861 22.9282 -0.8742
v  1.1301 23.3249 -0.4611
v  -1.1300 23.3249 -0.4611
v  -2.5860 22.9282 -0.8742
v  -2.6034 22.2647 1.0562
v  2.6035 20.2579 6.2325
v  -2.6034 20.2579 6.2325
v  -2.6034 21.2746 -6.2325
v  -2.2495 23.0089 -5.7214
v  -1.0100 23.0192 -6.1182
v  1.0101 23.0192 -6.1182
v  2.2496 23.0089 -5.7214
v  2.6035 21.2746 -6.2325
v  -2.8127 22.9984 -2.5649
v  -2.7207 22.9984 -4.5145
v  3.0418 21.2746 -4.9200
v  2.7208 22.9984 -4.5145
v  2.8128 22.9984 -2.5649
v  -3.0417 20.4756 4.9200
v  0.4238 24.6939 -5.2381
v  1.1741 24.6778 -4.8103
v  -0.4401 24.6937 -5.2337
v  -1.1861 24.6773 -4.7983
v  -1.6142 24.6491 -4.0485
v  -1.6098 24.6167 -3.1853
v  -1.1741 24.5886 -2.4399
v  -0.4238 24.5725 -2.0120
v  0.4401 24.5727 -2.0164
v  1.1861 24.5891 -2.4518
v  1.6142 24.6173 -3.2016
v  1.6098 24.6497 -4.0649
v  2.6035 0.6745 6.2325
v  -2.6034 0.6745 6.2325
v  -2.6034 0.6745 -6.2325
v  2.6035 0.6745 -6.2325
v  3.0418 0.6745 -4.9200
v  -3.0417 0.6745 4.9200
v  -0.4401 28.3312 -5.2337
v  0.4238 28.3312 -5.2381
v  -1.6098 28.3312 -3.1853
v  -1.6142 28.3312 -4.0485
v  0.4401 28.3312 -2.0164
v  -0.4238 28.3312 -2.0120
v  1.6098 28.3312 -4.0649
v  1.6142 28.3312 -3.2016
v  1.1741 28.3312 -4.8103
v  -1.1861 28.3312 -4.7983
v  -1.1741 28.3312 -2.4399
v  1.1861 28.3312 -2.4518
v  -1.2168 -0.0000 6.2270
v  1.2169 -0.0000 6.2270
v  1.2169 -0.0000 -6.2270
v  -1.2168 -0.0000 -6.2270
v  2.5988 -0.0000 4.8480
v  2.5988 -0.0000 -4.8480
v  -2.5987 -0.0000 -4.8480
v  -2.5987 -0.0000 4.8480
v  -2.2534 -0.0000 5.8821
v  2.2535 -0.0000 5.8821
v  2.2535 -0.0000 -5.8821
v  -2.2534 -0.0000 -5.8821
# 86 vertices

vn 0.1537 0.9456 0.2867
vn 0.1646 0.9564 0.2412
vn -0.1646 0.9564 0.2412
vn -0.1537 0.9456 0.2867
vn 0.1534 -0.2815 0.9472
vn 0.1528 0.1435 0.9778
vn -0.1528 0.1435 0.9778
vn -0.1534 -0.2815 0.9472
vn 0.9471 -0.2815 0.1540
vn 0.9918 0.1232 0.0335
vn 0.9725 0.1533 0.1754
vn -0.1534 -0.2815 -0.9472
vn -0.1624 0.1600 -0.9737
vn 0.1624 0.1600 -0.9737
vn 0.1534 -0.2815 -0.9472
vn -0.9471 -0.2815 -0.1540
vn -0.9918 0.1232 0.0335
vn -0.9797 0.1101 -0.1674
vn -0.6926 0.6849 0.2264
vn -0.5689 0.5268 0.6315
vn -0.1236 0.6356 0.7620
vn 0.1236 0.6356 0.7620
vn 0.5689 0.5268 0.6315
vn 0.6926 0.6849 0.2264
vn 0.7290 0.6704 0.1383
vn 0.7462 0.6178 0.2481
vn 0.1919 0.8706 0.4530
vn -0.1923 0.8707 0.4526
vn -0.7461 0.6180 0.2477
vn -0.7290 0.6704 0.1383
vn 0.6943 0.1220 0.7092
vn -0.6943 0.1220 0.7092
vn -0.6926 0.1616 -0.7030
vn -0.6140 0.4765 -0.6292
vn -0.1455 0.4088 -0.9009
vn 0.1459 0.4086 -0.9010
vn 0.6144 0.4765 -0.6288
vn 0.6926 0.1616 -0.7030
vn -0.9258 0.3768 0.0309
vn -0.8972 0.4019 -0.1831
vn 0.9797 0.1101 -0.1674
vn 0.8972 0.4020 -0.1828
vn 0.9260 0.3762 0.0311
vn -0.9725 0.1533 0.1754
vn 0.2317 0.2740 -0.9334
vn 0.6595 0.3610 -0.6593
vn -0.2424 0.2752 -0.9303
vn -0.6670 0.3613 -0.6516
vn -0.9207 0.3210 -0.2219
vn -0.9009 0.3556 0.2488
vn -0.6133 0.4693 0.6353
vn -0.2080 0.4825 0.8509
vn 0.2174 0.4831 0.8481
vn 0.6204 0.4691 0.6285
vn 0.9040 0.3547 0.2386
vn 0.9179 0.3216 -0.2324
vn 0.6768 -0.2879 0.6775
vn -0.6768 -0.2879 0.6775
vn -0.6768 -0.2879 -0.6775
vn 0.6768 -0.2879 -0.6775
vn 0.9471 -0.2815 -0.1540
vn -0.9471 -0.2815 0.1540
vn -0.1996 0.6533 -0.7303
vn 0.1922 0.6533 -0.7323
vn -0.7303 0.6532 0.1998
vn -0.7323 0.6532 -0.1924
vn 0.1996 0.6533 0.7303
vn -0.1922 0.6533 0.7323
vn 0.7304 0.6532 -0.1998
vn 0.7323 0.6532 0.1924
vn 0.5325 0.6532 -0.5383
vn -0.5379 0.6532 -0.5328
vn -0.5325 0.6532 0.5383
vn 0.5380 0.6532 0.5328
vn -0.0812 -0.8613 0.5015
vn 0.0812 -0.8613 0.5015
vn 0.0812 -0.8613 -0.5015
vn -0.0812 -0.8613 -0.5015
vn 0.5016 -0.8613 0.0815
vn 0.5016 -0.8613 -0.0815
vn -0.5016 -0.8613 -0.0815
vn -0.5016 -0.8613 0.0815
vn -0.3849 -0.8386 0.3854
vn 0.3849 -0.8386 0.3854
vn 0.3849 -0.8386 -0.3854
vn -0.3849 -0.8386 -0.3854
# 86 vertex normals

vt 0.3697 0.2599 0.0000
vt 0.3704 0.2871 0.0000
vt 0.3515 0.2871 0.0000
vt 0.3521 0.2599 0.0000
vt 0.5543 0.5184 0.0000
vt 0.4149 0.5184 0.0000
vt 0.4149 0.4999 0.0000
vt 0.5543 0.5004 0.0000
vt 0.5544 0.5371 0.0000
vt 0.4088 0.5787 0.0000
vt 0.4130 0.5386 0.0000
vt 0.5562 0.6436 0.0000
vt 0.4092 0.6476 0.0000
vt 0.4086 0.6291 0.0000
vt 0.5557 0.6255 0.0000
vt 0.5556 0.4118 0.0000
vt 0.4090 0.4397 0.0000
vt 0.4086 0.4093 0.0000
vt 0.3430 0.2589 0.0000
vt 0.3445 0.2511 0.0000
vt 0.3520 0.2499 0.0000
vt 0.3698 0.2499 0.0000
vt 0.3773 0.2511 0.0000
vt 0.3788 0.2589 0.0000
vt 0.3808 0.2871 0.0000
vt 0.3803 0.3014 0.0000
vt 0.3691 0.2993 0.0000
vt 0.3528 0.2993 0.0000
vt 0.3416 0.3013 0.0000
vt 0.3411 0.2871 0.0000
vt 0.3712 0.2398 0.0000
vt 0.3822 0.2447 0.0000
vt 0.3506 0.2398 0.0000
vt 0.3396 0.2447 0.0000
vt 0.3926 0.2962 0.0000
vt 0.3878 0.2554 0.0000
vt 0.3930 0.3632 0.0000
vt 0.3882 0.3719 0.0000
vt 0.3773 0.3644 0.0000
vt 0.3817 0.3563 0.0000
vt 0.4002 0.3460 0.0000
vt 0.3872 0.3432 0.0000
vt 0.3897 0.3347 0.0000
vt 0.4026 0.3359 0.0000
vt 0.3293 0.2962 0.0000
vt 0.3379 0.3130 0.0000
vt 0.3212 0.3256 0.0000
vt 0.3340 0.3262 0.0000
vt 0.3326 0.3353 0.0000
vt 0.3193 0.3354 0.0000
vt 0.4010 0.3256 0.0000
vt 0.3882 0.3261 0.0000
vt 0.3841 0.3130 0.0000
vt 0.3340 0.2554 0.0000
vt 0.3731 0.3415 0.0000
vt 0.3742 0.3350 0.0000
vt 0.3708 0.3474 0.0000
vt 0.3671 0.3525 0.0000
vt 0.3484 0.3276 0.0000
vt 0.3483 0.3338 0.0000
vt 0.3501 0.3215 0.0000
vt 0.3534 0.3164 0.0000
vt 0.3583 0.3135 0.0000
vt 0.3637 0.3135 0.0000
vt 0.3686 0.3166 0.0000
vt 0.3719 0.3218 0.0000
vt 0.3738 0.3282 0.0000
vt 0.5540 0.5277 0.0000
vt 0.4144 0.5285 0.0000
vt 0.4144 0.4898 0.0000
vt 0.5541 0.4911 0.0000
vt 0.5567 0.6534 0.0000
vt 0.4095 0.6575 0.0000
vt 0.4083 0.6192 0.0000
vt 0.5552 0.6163 0.0000
vt 0.4088 0.3994 0.0000
vt 0.5560 0.4021 0.0000
vt 0.4082 0.6092 0.0000
vt 0.5553 0.6069 0.0000
vt 0.4130 0.4798 0.0000
vt 0.5545 0.4818 0.0000
vt 0.8060 0.3181 0.0000
vt 0.8060 0.3278 0.0000
vt 0.7641 0.3278 0.0000
vt 0.7641 0.3181 0.0000
vt 0.8060 0.2298 0.0000
vt 0.8060 0.2396 0.0000
vt 0.7641 0.2396 0.0000
vt 0.7641 0.2298 0.0000
vt 0.8060 0.2592 0.0000
vt 0.8060 0.2690 0.0000
vt 0.7641 0.2690 0.0000
vt 0.7641 0.2592 0.0000
vt 0.8060 0.2886 0.0000
vt 0.8060 0.2984 0.0000
vt 0.7641 0.2984 0.0000
vt 0.7641 0.2886 0.0000
vt 0.8060 0.3083 0.0000
vt 0.7641 0.3083 0.0000
vt 0.8060 0.3377 0.0000
vt 0.7641 0.3377 0.0000
vt 0.8060 0.2200 0.0000
vt 0.7641 0.2200 0.0000
vt 0.8060 0.2494 0.0000
vt 0.7641 0.2494 0.0000
vt 0.8060 0.2789 0.0000
vt 0.7641 0.2789 0.0000
vt 0.9390 0.3643 0.0000
vt 0.9256 0.3508 0.0000
vt 0.9573 0.3594 0.0000
vt 0.9488 0.3642 0.0000
vt 0.5601 0.5002 0.0000
vt 0.5601 0.5186 0.0000
vt 0.5615 0.6252 0.0000
vt 0.5619 0.6433 0.0000
vt 0.5602 0.5368 0.0000
vt 0.5611 0.6071 0.0000
vt 0.5613 0.4121 0.0000
vt 0.5603 0.4821 0.0000
vt 0.5598 0.4911 0.0000
vt 0.5597 0.5277 0.0000
vt 0.5608 0.6161 0.0000
vt 0.5624 0.6513 0.0000
vt 0.5618 0.4041 0.0000
vt 0.3025 0.4092 0.0000
vt 0.3716 0.3722 0.0000
vt 0.3789 0.4067 0.0000
vt 0.3716 0.4092 0.0000
vt 0.9305 0.3593 0.0000
vt 0.9488 0.3276 0.0000
vt 0.9622 0.3411 0.0000
vt 0.2952 0.4067 0.0000
vt 0.2927 0.3993 0.0000
vt 0.2927 0.3820 0.0000
vt 0.2952 0.3746 0.0000
vt 0.3025 0.3722 0.0000
vt 0.3814 0.3820 0.0000
vt 0.3814 0.3993 0.0000
vt 0.9256 0.3411 0.0000
vt 0.9305 0.3325 0.0000
vt 0.9390 0.3277 0.0000
vt 0.9572 0.3326 0.0000
vt 0.9622 0.3508 0.0000
vt 0.3789 0.3746 0.0000
# 144 texture coords

o SM_BottlePlasticD_02
g SM_BottlePlasticD_02
s 1
f 1/1/1 2/2/2 3/3/3 4/4/4 
f 5/5/5 6/6/6 7/7/7 8/8/8 
f 9/9/9 10/10/10 11/11/11 
f 12/12/12 13/13/13 14/14/14 15/15/15 
f 16/16/16 17/17/17 18/18/18 
f 4/4/4 19/19/19 20/20/20 21/21/21 
f 1/1/1 22/22/22 23/23/23 24/24/24 
f 2/2/2 25/25/25 26/26/26 27/27/27 
f 3/3/3 28/28/28 29/29/29 30/30/30 
f 6/31/6 31/32/31 23/23/23 22/22/22 
f 7/33/7 21/21/21 20/20/20 32/34/32 
f 10/35/10 26/26/26 25/25/25 
f 11/36/11 24/24/24 23/23/23 31/32/31 
f 13/37/13 33/38/33 34/39/34 35/40/35 
f 14/41/14 36/42/36 37/43/37 38/44/38 
f 17/45/17 29/29/29 39/46/39 
f 18/47/18 40/48/40 34/49/34 33/50/33 
f 41/51/41 38/44/38 37/43/37 42/52/42 
f 43/53/43 26/26/26 10/35/10 
f 44/54/44 32/34/32 20/20/20 19/19/19 
f 30/30/30 29/29/29 17/45/17 
f 45/55/45 46/56/46 37/43/37 36/42/36 
f 47/57/47 35/40/35 34/39/34 48/58/48 
f 49/59/49 48/60/48 34/49/34 40/48/40 
f 50/61/50 39/46/39 29/29/29 51/62/51 
f 52/63/52 51/62/51 29/29/29 28/28/28 
f 53/64/53 27/27/27 26/26/26 54/65/54 
f 55/66/55 54/65/54 26/26/26 43/53/43 
f 56/67/56 42/52/42 37/43/37 46/56/46 
f 1/1/1 4/4/4 21/21/21 22/22/22 
f 2/2/2 1/1/1 24/24/24 25/25/25 
f 3/3/3 2/2/2 27/27/27 28/28/28 
f 4/4/4 3/3/3 30/30/30 19/19/19 
f 6/6/6 5/5/5 57/68/57 31/69/31 
f 7/33/7 6/31/6 22/22/22 21/21/21 
f 8/8/8 7/7/7 32/70/32 58/71/58 
f 11/36/11 10/35/10 25/25/25 24/24/24 
f 9/9/9 11/11/11 31/69/31 57/68/57 
f 13/13/13 12/12/12 59/72/59 33/73/33 
f 14/41/14 13/37/13 35/40/35 36/42/36 
f 15/15/15 14/14/14 38/74/38 60/75/60 
f 18/47/18 17/45/17 39/46/39 40/48/40 
f 16/16/16 18/18/18 33/76/33 59/77/59 
f 41/78/41 61/79/61 60/75/60 38/74/38 
f 10/35/10 41/51/41 42/52/42 43/53/43 
f 44/80/44 62/81/62 58/71/58 32/70/32 
f 17/45/17 44/54/44 19/19/19 30/30/30 
f 47/57/47 45/55/45 36/42/36 35/40/35 
f 50/61/50 49/59/49 40/48/40 39/46/39 
f 53/64/53 52/63/52 28/28/28 27/27/27 
f 56/67/56 55/66/55 43/53/43 42/52/42 
f 61/79/61 41/78/41 10/10/10 
f 16/16/16 62/81/62 17/17/17 
f 9/9/9 61/79/61 10/10/10 
f 62/81/62 44/80/44 17/17/17 
f 45/82/45 47/83/47 63/84/63 64/85/64 
f 49/86/49 50/87/50 65/88/65 66/89/66 
f 52/90/52 53/91/53 67/92/67 68/93/68 
f 55/94/55 56/95/56 69/96/69 70/97/70 
f 46/98/46 45/82/45 64/85/64 71/99/71 
f 47/83/47 48/100/48 72/101/72 63/84/63 
f 48/102/48 49/86/49 66/89/66 72/103/72 
f 50/87/50 51/104/51 73/105/73 65/88/65 
f 51/104/51 52/90/52 68/93/68 73/105/73 
f 53/91/53 54/106/54 74/107/74 67/92/67 
f 54/106/54 55/94/55 70/97/70 74/107/74 
f 56/95/56 46/98/46 71/99/71 69/96/69 
s 2
f 69/108/69 64/109/64 74/110/74 70/111/70 
s 1
f 5/5/5 8/8/8 75/112/75 76/113/76 
f 12/12/12 15/15/15 77/114/77 78/115/78 
f 61/79/61 9/9/9 79/116/79 80/117/80 
f 62/81/62 16/16/16 81/118/81 82/119/82 
f 8/8/8 58/71/58 83/120/83 75/112/75 
f 57/68/57 5/5/5 76/113/76 84/121/84 
f 9/9/9 57/68/57 84/121/84 79/116/79 
f 15/15/15 60/75/60 85/122/85 77/114/77 
f 59/72/59 12/12/12 78/115/78 86/123/86 
f 16/16/16 59/77/59 86/124/86 81/118/81 
f 60/75/60 61/79/61 80/117/80 85/122/85 
f 58/71/58 62/81/62 82/119/82 83/120/83 
f 79/125/79 81/126/81 85/127/85 80/128/80 
s 2
f 69/108/69 71/129/71 64/109/64 
f 64/109/64 65/130/65 68/131/68 74/110/74 
s 1
f 79/125/79 84/132/84 76/133/76 
f 76/133/76 75/134/75 83/135/83 
f 76/133/76 83/135/83 82/136/82 81/126/81 
f 79/125/79 76/133/76 81/126/81 
f 81/126/81 78/137/78 77/138/77 85/127/85 
s 2
f 64/109/64 63/139/63 72/140/72 
f 64/109/64 72/140/72 66/141/66 65/130/65 
f 65/130/65 73/142/73 68/131/68 
f 68/131/68 67/143/67 74/110/74 
s 1
f 81/126/81 86/144/86 78/137/78 
# 75 polygons - 18 triangles

