# 3ds Max Wavefront OBJ Exporter v0.97b - (c)2007 guruware
# File Created: 05.06.2017 02:39:48

#
# object SM_BottlePlasticB_01
#

v  4.8674 2.6102 -0.0000
v  4.8674 0.0000 -0.0000
v  4.4969 0.0000 -1.8627
v  4.4969 2.6102 -1.8627
v  3.4418 0.0000 -3.4418
v  3.4418 2.6102 -3.4418
v  1.8627 0.0000 -4.4969
v  1.8627 2.6102 -4.4969
v  -0.0000 0.0000 -4.8674
v  -0.0000 2.6102 -4.8674
v  -1.8627 0.0000 -4.4969
v  -1.8627 2.6102 -4.4969
v  -3.4418 0.0000 -3.4418
v  -3.4418 2.6102 -3.4418
v  -4.4969 0.0000 -1.8627
v  -4.4969 2.6102 -1.8627
v  -4.8674 0.0000 -0.0000
v  -4.8674 2.6102 -0.0000
v  -4.4969 0.0000 1.8627
v  -4.4969 2.6102 1.8627
v  -3.4418 0.0000 3.4418
v  -3.4418 2.6102 3.4418
v  -1.8627 0.0000 4.4969
v  -1.8627 2.6102 4.4969
v  0.0000 0.0000 4.8674
v  0.0000 2.6102 4.8674
v  1.8627 0.0000 4.4969
v  1.8627 2.6102 4.4969
v  3.4418 0.0000 3.4418
v  3.4418 2.6102 3.4418
v  4.4969 0.0000 1.8627
v  4.4969 2.6102 1.8627
v  -1.9525 18.2624 0.8088
v  -0.8088 18.2624 1.9525
v  -1.9525 18.2624 -0.8088
v  -2.1134 18.2624 -0.0000
v  2.1134 18.2624 -0.0000
v  4.8674 15.7473 -0.0000
v  4.4969 15.7473 -1.8627
v  1.9525 18.2624 -0.8088
v  3.4418 15.7473 -3.4418
v  1.4944 18.2624 -1.4944
v  1.8627 15.7473 -4.4969
v  0.8088 18.2624 -1.9525
v  -0.0000 15.7473 -4.8674
v  -0.0000 18.2624 -2.1134
v  -1.8627 15.7473 -4.4969
v  -0.8088 18.2624 -1.9525
v  -3.4418 15.7473 -3.4418
v  -1.4944 18.2624 -1.4944
v  -4.4969 15.7473 -1.8627
v  -4.8674 15.7473 -0.0000
v  -4.4969 15.7473 1.8627
v  -3.4418 15.7473 3.4418
v  -1.4944 18.2624 1.4944
v  -1.8627 15.7473 4.4969
v  0.0000 15.7473 4.8674
v  0.0000 18.2624 2.1134
v  1.8627 15.7473 4.4969
v  0.8088 18.2624 1.9525
v  3.4418 15.7473 3.4418
v  1.4944 18.2624 1.4944
v  4.4969 15.7473 1.8627
v  1.9525 18.2624 0.8088
v  1.4836 20.1316 -0.8566
v  1.7132 20.1316 -0.0000
v  1.8485 18.2578 -0.0000
v  1.6008 18.2578 -0.9242
v  0.8566 20.1316 -1.4836
v  0.9242 18.2578 -1.6008
v  -0.0000 20.1316 -1.7132
v  -0.0000 18.2578 -1.8485
v  -0.8566 20.1316 -1.4836
v  -0.9242 18.2578 -1.6008
v  -1.4836 20.1316 -0.8566
v  -1.6008 18.2578 -0.9242
v  -1.7132 20.1316 -0.0000
v  -1.8485 18.2578 -0.0000
v  -1.4836 20.1316 0.8566
v  -1.6008 18.2578 0.9242
v  -0.8566 20.1316 1.4836
v  -0.9242 18.2578 1.6008
v  -0.0000 20.1316 1.7132
v  -0.0000 18.2578 1.8485
v  0.8566 20.1316 1.4836
v  0.9242 18.2578 1.6008
v  1.4836 20.1316 0.8566
v  1.6008 18.2578 0.9242
v  4.8674 13.1372 -0.0000
v  4.4969 13.1372 -1.8627
v  3.4418 13.1372 -3.4418
v  1.8627 13.1372 -4.4969
v  -0.0000 13.1372 -4.8674
v  -1.8627 13.1372 -4.4969
v  -3.4418 13.1372 -3.4418
v  -4.4969 13.1372 -1.8627
v  -4.8674 13.1372 -0.0000
v  -4.4969 13.1372 1.8627
v  -3.4418 13.1372 3.4418
v  -1.8627 13.1372 4.4969
v  0.0000 13.1372 4.8674
v  1.8627 13.1372 4.4969
v  3.4418 13.1372 3.4418
v  4.4969 13.1372 1.8627
v  4.6763 12.7653 -0.0000
v  4.6763 2.9820 -0.0000
v  4.3203 2.9820 -1.7895
v  4.3203 12.7653 -1.7895
v  3.3066 2.9820 -3.3066
v  3.3066 12.7653 -3.3066
v  1.7895 2.9820 -4.3203
v  1.7895 12.7653 -4.3203
v  -0.0000 2.9820 -4.6763
v  -0.0000 12.7653 -4.6763
v  -1.7895 2.9820 -4.3203
v  -1.7895 12.7653 -4.3203
v  -3.3066 2.9820 -3.3066
v  -3.3066 12.7653 -3.3066
v  -4.3203 2.9820 -1.7895
v  -4.3203 12.7653 -1.7895
v  -4.6763 2.9820 -0.0000
v  -4.6763 12.7653 -0.0000
v  -4.3203 2.9820 1.7895
v  -4.3203 12.7653 1.7895
v  -3.3066 2.9820 3.3066
v  -3.3066 12.7653 3.3066
v  -1.7895 2.9820 4.3203
v  -1.7895 12.7653 4.3203
v  0.0000 2.9820 4.6763
v  0.0000 12.7653 4.6763
v  1.7895 2.9820 4.3203
v  1.7895 12.7653 4.3203
v  3.3066 2.9820 3.3066
v  3.3066 12.7653 3.3066
v  4.3203 2.9820 1.7895
v  4.3203 12.7653 1.7895
# 136 vertices

vn 0.9735 0.2287 -0.0000
vn 0.7462 -0.6657 -0.0000
vn 0.6894 -0.6657 -0.2856
vn 0.8994 0.2287 -0.3725
vn 0.5276 -0.6657 -0.5276
vn 0.6884 0.2287 -0.6884
vn 0.2856 -0.6658 -0.6894
vn 0.3725 0.2287 -0.8994
vn 0.0000 -0.6658 -0.7461
vn 0.0000 0.2288 -0.9735
vn -0.2856 -0.6658 -0.6894
vn -0.3725 0.2287 -0.8994
vn -0.5276 -0.6657 -0.5276
vn -0.6884 0.2287 -0.6884
vn -0.6894 -0.6657 -0.2856
vn -0.8994 0.2287 -0.3725
vn -0.7462 -0.6657 -0.0000
vn -0.9735 0.2287 0.0000
vn -0.6894 -0.6657 0.2856
vn -0.8994 0.2287 0.3725
vn -0.5276 -0.6657 0.5276
vn -0.6884 0.2287 0.6884
vn -0.2856 -0.6658 0.6894
vn -0.3725 0.2287 0.8994
vn 0.0000 -0.6658 0.7461
vn 0.0000 0.2288 0.9735
vn 0.2856 -0.6658 0.6894
vn 0.3725 0.2287 0.8994
vn 0.5276 -0.6657 0.5276
vn 0.6884 0.2287 0.6884
vn 0.6894 -0.6657 0.2856
vn 0.8994 0.2287 0.3725
vn -0.3692 0.9167 0.1529
vn -0.1529 0.9167 0.3692
vn -0.3692 0.9167 -0.1529
vn -0.3996 0.9167 -0.0000
vn 0.3996 0.9167 -0.0000
vn 0.9225 0.3861 -0.0000
vn 0.8522 0.3861 -0.3530
vn 0.3692 0.9167 -0.1529
vn 0.6523 0.3861 -0.6523
vn 0.2826 0.9167 -0.2826
vn 0.3530 0.3861 -0.8522
vn 0.1529 0.9167 -0.3692
vn 0.0000 0.3861 -0.9224
vn 0.0000 0.9167 -0.3996
vn -0.3530 0.3861 -0.8522
vn -0.1529 0.9167 -0.3692
vn -0.6523 0.3861 -0.6523
vn -0.2826 0.9167 -0.2826
vn -0.8522 0.3861 -0.3530
vn -0.9225 0.3861 -0.0000
vn -0.8522 0.3861 0.3530
vn -0.6523 0.3861 0.6523
vn -0.2826 0.9167 0.2826
vn -0.3530 0.3861 0.8522
vn 0.0000 0.3861 0.9224
vn 0.0000 0.9167 0.3996
vn 0.3530 0.3861 0.8522
vn 0.1529 0.9167 0.3692
vn 0.6523 0.3861 0.6523
vn 0.2826 0.9167 0.2826
vn 0.8522 0.3861 0.3530
vn 0.3692 0.9167 0.1529
vn 0.6352 0.6798 -0.3667
vn 0.7334 0.6798 0.0000
vn 0.9974 0.0720 0.0000
vn 0.8638 0.0720 -0.4987
vn 0.3667 0.6798 -0.6352
vn 0.4987 0.0720 -0.8638
vn -0.0000 0.6798 -0.7334
vn -0.0000 0.0720 -0.9974
vn -0.3667 0.6798 -0.6352
vn -0.4987 0.0720 -0.8638
vn -0.6352 0.6798 -0.3667
vn -0.8638 0.0720 -0.4987
vn -0.7334 0.6798 -0.0000
vn -0.9974 0.0720 -0.0000
vn -0.6352 0.6798 0.3667
vn -0.8638 0.0720 0.4987
vn -0.3667 0.6798 0.6351
vn -0.4987 0.0720 0.8638
vn -0.0000 0.6798 0.7334
vn -0.0000 0.0720 0.9974
vn 0.3667 0.6798 0.6352
vn 0.4987 0.0720 0.8638
vn 0.6352 0.6798 0.3667
vn 0.8638 0.0720 0.4987
vn 0.9735 -0.2287 -0.0000
vn 0.8994 -0.2287 -0.3725
vn 0.6884 -0.2287 -0.6884
vn 0.3725 -0.2287 -0.8994
vn 0.0000 -0.2288 -0.9735
vn -0.3725 -0.2287 -0.8994
vn -0.6884 -0.2287 -0.6884
vn -0.8994 -0.2287 -0.3725
vn -0.9735 -0.2287 0.0000
vn -0.8994 -0.2287 0.3725
vn -0.6884 -0.2287 0.6884
vn -0.3725 -0.2287 0.8994
vn 0.0000 -0.2288 0.9735
vn 0.3725 -0.2287 0.8994
vn 0.6884 -0.2287 0.6884
vn 0.8994 -0.2287 0.3725
vn 0.9702 -0.2421 -0.0000
vn 0.9702 0.2421 -0.0000
vn 0.8964 0.2421 -0.3713
vn 0.8964 -0.2421 -0.3713
vn 0.6861 0.2421 -0.6861
vn 0.6861 -0.2421 -0.6861
vn 0.3713 0.2421 -0.8964
vn 0.3713 -0.2421 -0.8964
vn -0.0000 0.2421 -0.9702
vn -0.0000 -0.2421 -0.9702
vn -0.3713 0.2421 -0.8964
vn -0.3713 -0.2421 -0.8964
vn -0.6861 0.2421 -0.6861
vn -0.6861 -0.2421 -0.6861
vn -0.8964 0.2421 -0.3713
vn -0.8964 -0.2421 -0.3713
vn -0.9703 0.2421 -0.0000
vn -0.9703 -0.2421 -0.0000
vn -0.8964 0.2421 0.3713
vn -0.8964 -0.2421 0.3713
vn -0.6861 0.2421 0.6861
vn -0.6861 -0.2421 0.6861
vn -0.3713 0.2421 0.8964
vn -0.3713 -0.2421 0.8964
vn 0.0000 0.2421 0.9703
vn 0.0000 -0.2421 0.9703
vn 0.3713 0.2421 0.8964
vn 0.3713 -0.2421 0.8964
vn 0.6861 0.2421 0.6861
vn 0.6861 -0.2421 0.6861
vn 0.8964 0.2421 0.3713
vn 0.8964 -0.2421 0.3713
# 136 vertex normals

vt 0.8420 0.4449 0.0000
vt 0.8607 0.4448 0.0000
vt 0.8607 0.4579 0.0000
vt 0.8420 0.4580 0.0000
vt 0.8607 0.4710 0.0000
vt 0.8420 0.4710 0.0000
vt 0.8607 0.4840 0.0000
vt 0.8420 0.4841 0.0000
vt 0.8607 0.4971 0.0000
vt 0.8420 0.4971 0.0000
vt 0.8607 0.5101 0.0000
vt 0.8420 0.5101 0.0000
vt 0.8607 0.5232 0.0000
vt 0.8420 0.5232 0.0000
vt 0.8607 0.5363 0.0000
vt 0.8420 0.5362 0.0000
vt 0.8607 0.5494 0.0000
vt 0.8420 0.5493 0.0000
vt 0.8607 0.5626 0.0000
vt 0.8420 0.5625 0.0000
vt 0.8607 0.5758 0.0000
vt 0.8420 0.5757 0.0000
vt 0.8607 0.5891 0.0000
vt 0.8420 0.5889 0.0000
vt 0.8607 0.6026 0.0000
vt 0.8420 0.6023 0.0000
vt 0.8420 0.3919 0.0000
vt 0.8607 0.3916 0.0000
vt 0.8607 0.4050 0.0000
vt 0.8420 0.4053 0.0000
vt 0.8607 0.4184 0.0000
vt 0.8420 0.4186 0.0000
vt 0.8607 0.4316 0.0000
vt 0.8420 0.4318 0.0000
vt 0.8280 0.6446 0.0000
vt 0.8525 0.6344 0.0000
vt 0.8178 0.6691 0.0000
vt 0.8205 0.6558 0.0000
vt 0.8667 0.6102 0.0000
vt 0.8748 0.6020 0.0000
vt 0.8667 0.6217 0.0000
vt 0.8655 0.6159 0.0000
vt 0.7212 0.4524 0.0000
vt 0.7472 0.4509 0.0000
vt 0.7472 0.4628 0.0000
vt 0.7212 0.4638 0.0000
vt 0.7472 0.4747 0.0000
vt 0.7212 0.4754 0.0000
vt 0.7472 0.4865 0.0000
vt 0.7212 0.4870 0.0000
vt 0.7472 0.4983 0.0000
vt 0.7212 0.4987 0.0000
vt 0.7472 0.5101 0.0000
vt 0.7212 0.5103 0.0000
vt 0.7472 0.5219 0.0000
vt 0.7212 0.5219 0.0000
vt 0.7472 0.5338 0.0000
vt 0.7212 0.5335 0.0000
vt 0.7472 0.5456 0.0000
vt 0.7212 0.5448 0.0000
vt 0.7472 0.5576 0.0000
vt 0.7212 0.5559 0.0000
vt 0.7472 0.5697 0.0000
vt 0.7212 0.5662 0.0000
vt 0.7472 0.5820 0.0000
vt 0.7212 0.5753 0.0000
vt 0.7472 0.5949 0.0000
vt 0.7205 0.5821 0.0000
vt 0.7212 0.4149 0.0000
vt 0.7472 0.4017 0.0000
vt 0.7472 0.4145 0.0000
vt 0.7212 0.4219 0.0000
vt 0.7472 0.4269 0.0000
vt 0.7212 0.4310 0.0000
vt 0.7472 0.4390 0.0000
vt 0.7212 0.4414 0.0000
vt 0.8477 0.0648 0.0000
vt 0.8582 0.0648 0.0000
vt 0.8582 0.0861 0.0000
vt 0.8477 0.0861 0.0000
vt 0.8373 0.0648 0.0000
vt 0.8373 0.0861 0.0000
vt 0.8268 0.0648 0.0000
vt 0.8268 0.0861 0.0000
vt 0.8164 0.0648 0.0000
vt 0.8164 0.0861 0.0000
vt 0.8059 0.0648 0.0000
vt 0.8059 0.0861 0.0000
vt 0.7955 0.0648 0.0000
vt 0.7955 0.0861 0.0000
vt 0.7850 0.0648 0.0000
vt 0.7850 0.0861 0.0000
vt 0.7745 0.0648 0.0000
vt 0.7745 0.0861 0.0000
vt 0.7641 0.0648 0.0000
vt 0.7641 0.0861 0.0000
vt 0.8791 0.0648 0.0000
vt 0.8896 0.0648 0.0000
vt 0.8896 0.0861 0.0000
vt 0.8791 0.0861 0.0000
vt 0.8687 0.0648 0.0000
vt 0.8687 0.0861 0.0000
vt 0.8875 0.3293 0.0000
vt 0.8875 0.3099 0.0000
vt 0.9043 0.3390 0.0000
vt 0.8946 0.3364 0.0000
vt 0.7660 0.4495 0.0000
vt 0.7660 0.4618 0.0000
vt 0.7660 0.4739 0.0000
vt 0.7660 0.4860 0.0000
vt 0.7660 0.4981 0.0000
vt 0.7660 0.5102 0.0000
vt 0.7660 0.5223 0.0000
vt 0.7660 0.5344 0.0000
vt 0.7660 0.5467 0.0000
vt 0.7660 0.5590 0.0000
vt 0.7660 0.5716 0.0000
vt 0.7660 0.5844 0.0000
vt 0.7660 0.5977 0.0000
vt 0.7660 0.3985 0.0000
vt 0.7660 0.4118 0.0000
vt 0.7660 0.4246 0.0000
vt 0.7660 0.4372 0.0000
vt 0.7691 0.4492 0.0000
vt 0.8390 0.4450 0.0000
vt 0.8390 0.4581 0.0000
vt 0.7691 0.4615 0.0000
vt 0.8390 0.4711 0.0000
vt 0.7691 0.4737 0.0000
vt 0.8390 0.4841 0.0000
vt 0.7691 0.4859 0.0000
vt 0.8390 0.4971 0.0000
vt 0.7691 0.4981 0.0000
vt 0.8390 0.5101 0.0000
vt 0.7691 0.5102 0.0000
vt 0.8390 0.5232 0.0000
vt 0.7691 0.5224 0.0000
vt 0.8390 0.5362 0.0000
vt 0.7691 0.5346 0.0000
vt 0.8390 0.5493 0.0000
vt 0.7691 0.5469 0.0000
vt 0.8390 0.5624 0.0000
vt 0.7691 0.5593 0.0000
vt 0.8390 0.5755 0.0000
vt 0.7691 0.5719 0.0000
vt 0.8390 0.5887 0.0000
vt 0.7691 0.5848 0.0000
vt 0.8390 0.6018 0.0000
vt 0.7691 0.5977 0.0000
vt 0.7691 0.3984 0.0000
vt 0.8390 0.3925 0.0000
vt 0.8390 0.4056 0.0000
vt 0.7691 0.4113 0.0000
vt 0.8390 0.4187 0.0000
vt 0.7691 0.4242 0.0000
vt 0.8390 0.4319 0.0000
vt 0.7691 0.4368 0.0000
vt 0.8392 0.6370 0.0000
vt 0.8872 0.6691 0.0000
vt 0.8525 0.7037 0.0000
vt 0.8699 0.6053 0.0000
vt 0.8945 0.6102 0.0000
vt 0.8863 0.6298 0.0000
vt 0.8849 0.3196 0.0000
vt 0.9211 0.3099 0.0000
vt 0.9211 0.3293 0.0000
vt 0.8657 0.6370 0.0000
vt 0.8770 0.6446 0.0000
vt 0.8845 0.6558 0.0000
vt 0.8845 0.6823 0.0000
vt 0.8770 0.6936 0.0000
vt 0.8657 0.7011 0.0000
vt 0.8280 0.6936 0.0000
vt 0.8205 0.6823 0.0000
vt 0.8806 0.6009 0.0000
vt 0.8863 0.6020 0.0000
vt 0.8912 0.6053 0.0000
vt 0.8956 0.6159 0.0000
vt 0.8945 0.6217 0.0000
vt 0.8912 0.6266 0.0000
vt 0.8748 0.6298 0.0000
vt 0.8699 0.6266 0.0000
vt 0.8946 0.3027 0.0000
vt 0.9043 0.3001 0.0000
vt 0.9141 0.3027 0.0000
vt 0.9237 0.3196 0.0000
vt 0.9141 0.3364 0.0000
vt 0.8392 0.7011 0.0000
vt 0.8806 0.6310 0.0000
# 189 texture coords

o SM_BottlePlasticB_01
g SM_BottlePlasticB_01
s 1
f 1/1/1 2/2/2 3/3/3 4/4/4 
f 4/4/4 3/3/3 5/5/5 6/6/6 
f 6/6/6 5/5/5 7/7/7 8/8/8 
f 8/8/8 7/7/7 9/9/9 10/10/10 
f 10/10/10 9/9/9 11/11/11 12/12/12 
f 12/12/12 11/11/11 13/13/13 14/14/14 
f 14/14/14 13/13/13 15/15/15 16/16/16 
f 16/16/16 15/15/15 17/17/17 18/18/18 
f 18/18/18 17/17/17 19/19/19 20/20/20 
f 20/20/20 19/19/19 21/21/21 22/22/22 
f 22/22/22 21/21/21 23/23/23 24/24/24 
f 24/24/24 23/23/23 25/25/25 26/26/26 
f 26/27/26 25/28/25 27/29/27 28/30/28 
f 28/30/28 27/29/27 29/31/29 30/32/30 
f 30/32/30 29/31/29 31/33/31 32/34/32 
f 32/34/32 31/33/31 2/2/2 1/1/1 
f 13/35/13 9/36/9 17/37/17 15/38/15 
f 33/39/33 34/40/34 35/41/35 36/42/36 
f 37/43/37 38/44/38 39/45/39 40/46/40 
f 40/46/40 39/45/39 41/47/41 42/48/42 
f 42/48/42 41/47/41 43/49/43 44/50/44 
f 44/50/44 43/49/43 45/51/45 46/52/46 
f 46/52/46 45/51/45 47/53/47 48/54/48 
f 48/54/48 47/53/47 49/55/49 50/56/50 
f 50/56/50 49/55/49 51/57/51 35/58/35 
f 35/58/35 51/57/51 52/59/52 36/60/36 
f 36/60/36 52/59/52 53/61/53 33/62/33 
f 33/62/33 53/61/53 54/63/54 55/64/55 
f 55/64/55 54/63/54 56/65/56 34/66/34 
f 34/66/34 56/65/56 57/67/57 58/68/58 
f 58/69/58 57/70/57 59/71/59 60/72/60 
f 60/72/60 59/71/59 61/73/61 62/74/62 
f 62/74/62 61/73/61 63/75/63 64/76/64 
f 64/76/64 63/75/63 38/44/38 37/43/37 
f 65/77/65 66/78/66 67/79/67 68/80/68 
f 69/81/69 65/77/65 68/80/68 70/82/70 
f 71/83/71 69/81/69 70/82/70 72/84/72 
f 73/85/73 71/83/71 72/84/72 74/86/74 
f 75/87/75 73/85/73 74/86/74 76/88/76 
f 77/89/77 75/87/75 76/88/76 78/90/78 
f 79/91/79 77/89/77 78/90/78 80/92/80 
f 81/93/81 79/91/79 80/92/80 82/94/82 
f 83/95/83 81/93/81 82/94/82 84/96/84 
f 85/97/85 83/98/83 84/99/84 86/100/86 
f 87/101/87 85/97/85 86/100/86 88/102/88 
f 66/78/66 87/101/87 88/102/88 67/79/67 
s 2
f 75/103/75 79/104/79 71/105/71 73/106/73 
s 1
f 89/107/89 90/108/90 39/45/39 38/44/38 
f 90/108/90 91/109/91 41/47/41 39/45/39 
f 91/109/91 92/110/92 43/49/43 41/47/41 
f 92/110/92 93/111/93 45/51/45 43/49/43 
f 93/111/93 94/112/94 47/53/47 45/51/45 
f 94/112/94 95/113/95 49/55/49 47/53/47 
f 95/113/95 96/114/96 51/57/51 49/55/49 
f 96/114/96 97/115/97 52/59/52 51/57/51 
f 97/115/97 98/116/98 53/61/53 52/59/52 
f 98/116/98 99/117/99 54/63/54 53/61/53 
f 99/117/99 100/118/100 56/65/56 54/63/54 
f 100/118/100 101/119/101 57/67/57 56/65/56 
f 101/120/101 102/121/102 59/71/59 57/70/57 
f 102/121/102 103/122/103 61/73/61 59/71/59 
f 103/122/103 104/123/104 63/75/63 61/73/61 
f 104/123/104 89/107/89 38/44/38 63/75/63 
f 105/124/105 106/125/106 107/126/107 108/127/108 
f 108/127/108 107/126/107 109/128/109 110/129/110 
f 110/129/110 109/128/109 111/130/111 112/131/112 
f 112/131/112 111/130/111 113/132/113 114/133/114 
f 114/133/114 113/132/113 115/134/115 116/135/116 
f 116/135/116 115/134/115 117/136/117 118/137/118 
f 118/137/118 117/136/117 119/138/119 120/139/120 
f 120/139/120 119/138/119 121/140/121 122/141/122 
f 122/141/122 121/140/121 123/142/123 124/143/124 
f 124/143/124 123/142/123 125/144/125 126/145/126 
f 126/145/126 125/144/125 127/146/127 128/147/128 
f 128/147/128 127/146/127 129/148/129 130/149/130 
f 130/150/130 129/151/129 131/152/131 132/153/132 
f 132/153/132 131/152/131 133/154/133 134/155/134 
f 134/155/134 133/154/133 135/156/135 136/157/136 
f 136/157/136 135/156/135 106/125/106 105/124/105 
f 107/126/107 106/125/106 1/1/1 4/4/4 
f 109/128/109 107/126/107 4/4/4 6/6/6 
f 111/130/111 109/128/109 6/6/6 8/8/8 
f 113/132/113 111/130/111 8/8/8 10/10/10 
f 115/134/115 113/132/113 10/10/10 12/12/12 
f 117/136/117 115/134/115 12/12/12 14/14/14 
f 119/138/119 117/136/117 14/14/14 16/16/16 
f 121/140/121 119/138/119 16/16/16 18/18/18 
f 123/142/123 121/140/121 18/18/18 20/20/20 
f 125/144/125 123/142/123 20/20/20 22/22/22 
f 127/146/127 125/144/125 22/22/22 24/24/24 
f 129/148/129 127/146/127 24/24/24 26/26/26 
f 131/152/131 129/151/129 26/27/26 28/30/28 
f 133/154/133 131/152/131 28/30/28 30/32/30 
f 135/156/135 133/154/133 30/32/30 32/34/32 
f 106/125/106 135/156/135 32/34/32 1/1/1 
f 105/124/105 108/127/108 90/108/90 89/107/89 
f 136/157/136 105/124/105 89/107/89 104/123/104 
f 134/155/134 136/157/136 104/123/104 103/122/103 
f 132/153/132 134/155/134 103/122/103 102/121/102 
f 130/150/130 132/153/132 102/121/102 101/120/101 
f 128/147/128 130/149/130 101/119/101 100/118/100 
f 126/145/126 128/147/128 100/118/100 99/117/99 
f 124/143/124 126/145/126 99/117/99 98/116/98 
f 122/141/122 124/143/124 98/116/98 97/115/97 
f 120/139/120 122/141/122 97/115/97 96/114/96 
f 118/137/118 120/139/120 96/114/96 95/113/95 
f 116/135/116 118/137/118 95/113/95 94/112/94 
f 114/133/114 116/135/116 94/112/94 93/111/93 
f 112/131/112 114/133/114 93/111/93 92/110/92 
f 110/129/110 112/131/112 92/110/92 91/109/91 
f 108/127/108 110/129/110 91/109/91 90/108/90 
f 13/35/13 11/158/11 9/36/9 
f 9/36/9 2/159/2 25/160/25 17/37/17 
f 33/39/33 55/161/55 34/40/34 
f 34/40/34 64/162/64 44/163/44 35/41/35 
s 2
f 75/103/75 77/164/77 79/104/79 
f 79/104/79 87/165/87 65/166/65 71/105/71 
s 1
f 9/36/9 7/167/7 5/168/5 
f 9/36/9 5/168/5 3/169/3 2/159/2 
f 2/159/2 31/170/31 29/171/29 
f 2/159/2 29/171/29 27/172/27 25/160/25 
f 25/160/25 21/173/21 19/174/19 17/37/17 
f 34/40/34 58/175/58 60/176/60 
f 34/40/34 60/176/60 62/177/62 64/162/64 
f 64/162/64 37/178/37 40/179/40 
f 64/162/64 40/179/40 42/180/42 44/163/44 
f 44/163/44 48/181/48 50/182/50 35/41/35 
s 2
f 79/104/79 81/183/81 83/184/83 
f 79/104/79 83/184/83 85/185/85 87/165/87 
f 87/165/87 66/186/66 65/166/65 
f 65/166/65 69/187/69 71/105/71 
s 1
f 25/160/25 23/188/23 21/173/21 
f 44/163/44 46/189/46 48/181/48 
# 121 polygons - 12 triangles

