# 3ds Max Wavefront OBJ Exporter v0.97b - (c)2007 guruware
# File Created: 05.06.2017 02:39:45

#
# object SM_BottlePlasticE_01
#

v  -7.6055 0.8888 3.9602
v  -7.6055 21.2469 -0.7986
v  -7.6055 0.8888 -5.0330
v  -5.9095 0.8888 -6.7290
v  -5.9095 21.2469 -6.7290
v  5.9095 21.2469 -6.7290
v  5.9095 0.8888 -6.7290
v  -6.5892 24.3006 -5.0330
v  -6.5892 24.3006 -2.8883
v  -5.1408 26.2357 -3.3967
v  -5.1408 26.2357 -5.0330
v  -6.8808 22.3945 5.0477
v  -4.7611 22.5188 6.3050
v  -4.7611 22.9428 3.9602
v  -7.1815 22.5188 3.9602
v  -5.9095 22.9428 0.8974
v  -5.5031 23.3529 -0.4823
v  -6.9574 23.0827 -0.8871
v  -7.1815 22.5188 0.4734
v  -4.7611 0.8888 6.7290
v  -6.1217 0.8888 6.2778
v  -5.8987 0.0000 6.0123
v  -4.7611 -0.0002 6.3050
v  -4.7611 21.2469 6.7290
v  -5.8987 22.3924 6.0123
v  -6.1217 21.2469 6.2778
v  -7.1815 0.0000 3.9602
v  -6.8808 0.0000 5.0477
v  -7.1457 0.8888 5.2712
v  -7.6055 21.2469 3.9602
v  -7.1457 21.2469 5.2712
v  -5.9095 -0.0002 -6.3050
v  -6.8734 0.0002 -5.8914
v  -7.1815 0.8888 -6.3050
v  -7.1815 21.2469 -6.3050
v  -6.8849 22.9029 -6.3283
v  -5.4865 22.9428 -6.7290
v  -2.4286 27.5935 -3.7163
v  -3.9546 27.2540 -3.6364
v  -3.8391 27.0398 -2.5081
v  -2.6361 27.1834 -2.3366
v  -2.4286 27.5935 -5.0330
v  -2.6403 27.1695 -6.3050
v  -3.8419 27.0289 -6.1019
v  -3.9546 27.2540 -5.0330
v  -7.1815 0.0000 -5.0330
v  -7.6055 21.2469 -5.0330
v  -7.3514 22.8583 -5.0330
v  -4.2176 24.6388 -6.7290
v  -5.9963 24.3852 -6.3050
v  -3.2755 25.8975 -6.7290
v  -4.6745 26.1511 -6.3050
v  -4.2840 24.5832 -1.2295
v  -6.0238 24.3567 -1.6033
v  -3.2586 25.9531 -1.5894
v  -4.6594 26.1796 -2.0821
v  -7.3514 22.8583 -2.1690
v  2.4286 27.5935 -3.7163
v  2.4286 27.5935 -5.0330
v  5.4865 22.9428 -6.7290
v  5.5031 23.3529 -0.4823
v  4.2840 24.5832 -1.2295
v  4.7611 21.2469 6.7290
v  4.7611 22.5188 6.3050
v  4.2176 24.6388 -6.7290
v  5.9095 22.9428 0.8974
v  7.6055 0.8888 3.9602
v  7.6055 21.2469 -0.7986
v  7.6055 21.2469 3.9602
v  6.5892 24.3006 -5.0330
v  5.1408 26.2357 -5.0330
v  5.1408 26.2357 -3.3967
v  6.5892 24.3006 -2.8883
v  6.8808 22.3945 5.0477
v  7.1815 22.5188 3.9602
v  4.7611 22.9428 3.9602
v  7.1815 22.5188 0.4734
v  6.9574 23.0827 -0.8871
v  4.7611 0.8888 6.7290
v  4.7611 -0.0002 6.3050
v  5.8987 0.0000 6.0123
v  6.1217 0.8888 6.2778
v  6.1217 21.2469 6.2778
v  5.8987 22.3924 6.0123
v  7.1457 0.8888 5.2712
v  6.8808 0.0000 5.0477
v  7.1815 0.0000 3.9602
v  7.1457 21.2469 5.2712
v  7.1815 0.8888 -6.3050
v  6.8734 0.0002 -5.8914
v  5.9095 -0.0002 -6.3050
v  6.8849 22.9029 -6.3283
v  7.1815 21.2469 -6.3050
v  2.6361 27.1834 -2.3366
v  3.8391 27.0398 -2.5081
v  3.9546 27.2540 -3.6364
v  3.9546 27.2540 -5.0330
v  3.8419 27.0289 -6.1019
v  2.6403 27.1695 -6.3050
v  7.6055 0.8888 -5.0330
v  7.1815 0.0000 -5.0330
v  7.6055 21.2469 -5.0330
v  7.3514 22.8583 -5.0330
v  5.9963 24.3852 -6.3050
v  3.2755 25.8975 -6.7290
v  4.6745 26.1511 -6.3050
v  6.0238 24.3567 -1.6033
v  3.2586 25.9531 -1.5894
v  4.6594 26.1796 -2.0821
v  7.3514 22.8583 -2.1690
v  2.4236 22.9683 2.9705
v  2.2391 22.9683 2.0430
v  2.2391 24.2195 2.0430
v  2.4236 24.2195 2.9705
v  1.7138 22.9683 1.2567
v  1.7138 24.2195 1.2567
v  0.9275 22.9683 0.7313
v  0.9275 24.2195 0.7313
v  -0.0000 22.9683 0.5469
v  -0.0000 24.2195 0.5469
v  -0.9275 22.9683 0.7313
v  -0.9275 24.2195 0.7313
v  -1.7138 22.9683 1.2567
v  -1.7138 24.2195 1.2567
v  -2.2391 22.9683 2.0430
v  -2.2391 24.2195 2.0430
v  -2.4236 22.9683 2.9705
v  -2.4236 24.2195 2.9705
v  -2.2391 22.9683 3.8979
v  -2.2391 24.2195 3.8979
v  -1.7138 22.9683 4.6842
v  -1.7138 24.2195 4.6842
v  -0.9275 22.9683 5.2096
v  -0.9275 24.2195 5.2096
v  0.0000 22.9683 5.3941
v  0.0000 24.2195 5.3941
v  0.9275 22.9683 5.2096
v  0.9275 24.2195 5.2096
v  1.7138 22.9683 4.6842
v  1.7138 24.2195 4.6842
v  2.2391 22.9683 3.8979
v  2.2391 24.2195 3.8979
# 142 vertices

vn -0.9636 -0.2135 0.1608
vn -0.9929 0.1172 0.0216
vn -0.9647 -0.2139 -0.1535
vn -0.1535 -0.2138 -0.9647
vn -0.1722 0.0229 -0.9848
vn 0.1722 0.0229 -0.9848
vn 0.1535 -0.2138 -0.9647
vn -0.8358 0.5215 -0.1715
vn -0.8144 0.5625 0.1425
vn -0.7116 0.6895 0.1349
vn -0.7262 0.6708 -0.1507
vn -0.6118 0.6861 0.3937
vn -0.1219 0.7402 0.6613
vn -0.0758 0.9920 0.1011
vn -0.6607 0.7398 0.1271
vn -0.2199 0.9639 0.1499
vn -0.1712 0.8516 0.4955
vn -0.6137 0.7362 0.2852
vn -0.7594 0.6459 0.0782
vn -0.1528 -0.2139 0.9648
vn -0.5159 -0.1786 0.8378
vn -0.3005 -0.7811 0.5473
vn -0.0735 -0.8258 0.5591
vn -0.1552 0.1559 0.9755
vn -0.3809 0.6859 0.6201
vn -0.5185 0.1421 0.8432
vn -0.5609 -0.8241 0.0791
vn -0.5413 -0.7814 0.3107
vn -0.8290 -0.1789 0.5299
vn -0.9742 0.1556 0.1633
vn -0.8343 0.1420 0.5326
vn -0.1243 -0.8126 -0.5693
vn -0.4393 -0.8087 -0.3912
vn -0.6811 -0.2415 -0.6912
vn -0.7184 0.0595 -0.6931
vn -0.6771 0.2573 -0.6894
vn -0.1571 0.0883 -0.9836
vn -0.0999 0.9860 0.1338
vn -0.4373 0.8936 0.1008
vn -0.3554 0.8079 0.4701
vn -0.0786 0.7987 0.5966
vn -0.1019 0.9833 -0.1508
vn -0.0857 0.7167 -0.6921
vn -0.3733 0.7457 -0.5519
vn -0.4448 0.8884 -0.1134
vn -0.5662 -0.8177 -0.1036
vn -0.9844 0.0765 -0.1585
vn -0.9390 0.3057 -0.1574
vn -0.1282 0.0960 -0.9871
vn -0.5827 0.4002 -0.7073
vn -0.1041 0.2080 -0.9726
vn -0.5224 0.4981 -0.6921
vn -0.1212 0.4706 0.8740
vn -0.5227 0.6397 0.5635
vn -0.0983 0.4279 0.8985
vn -0.4872 0.6208 0.6142
vn -0.9320 0.3521 0.0862
vn 0.0999 0.9860 0.1338
vn 0.1019 0.9833 -0.1508
vn 0.1571 0.0883 -0.9836
vn 0.1712 0.8516 0.4955
vn 0.1212 0.4706 0.8740
vn 0.1552 0.1559 0.9755
vn 0.1219 0.7402 0.6613
vn 0.1282 0.0960 -0.9871
vn 0.2199 0.9639 0.1499
vn 0.9636 -0.2134 0.1608
vn 0.9929 0.1172 0.0216
vn 0.9742 0.1556 0.1633
vn 0.8358 0.5215 -0.1715
vn 0.7262 0.6708 -0.1507
vn 0.7116 0.6895 0.1349
vn 0.8144 0.5625 0.1425
vn 0.6118 0.6861 0.3937
vn 0.6606 0.7399 0.1271
vn 0.0758 0.9920 0.1011
vn 0.7594 0.6459 0.0782
vn 0.6137 0.7362 0.2852
vn 0.1528 -0.2139 0.9648
vn 0.0735 -0.8258 0.5591
vn 0.3005 -0.7811 0.5473
vn 0.5159 -0.1786 0.8378
vn 0.5185 0.1421 0.8432
vn 0.3809 0.6859 0.6201
vn 0.8290 -0.1789 0.5299
vn 0.5413 -0.7814 0.3107
vn 0.5609 -0.8241 0.0791
vn 0.8343 0.1421 0.5327
vn 0.6811 -0.2415 -0.6912
vn 0.4393 -0.8087 -0.3912
vn 0.1243 -0.8126 -0.5693
vn 0.6771 0.2573 -0.6894
vn 0.7184 0.0595 -0.6931
vn 0.0786 0.7987 0.5966
vn 0.3554 0.8079 0.4701
vn 0.4373 0.8936 0.1008
vn 0.4448 0.8884 -0.1134
vn 0.3733 0.7457 -0.5519
vn 0.0857 0.7167 -0.6921
vn 0.9647 -0.2139 -0.1535
vn 0.5662 -0.8177 -0.1036
vn 0.9844 0.0766 -0.1585
vn 0.9390 0.3056 -0.1574
vn 0.5827 0.4002 -0.7073
vn 0.1041 0.2080 -0.9726
vn 0.5224 0.4981 -0.6921
vn 0.5227 0.6397 0.5635
vn 0.0983 0.4279 0.8985
vn 0.4872 0.6208 0.6142
vn 0.9320 0.3521 0.0862
vn 1.0000 0.0000 -0.0000
vn 0.9239 0.0000 -0.3827
vn 0.6894 0.6657 -0.2856
vn 0.7462 0.6658 -0.0000
vn 0.7071 0.0000 -0.7071
vn 0.5276 0.6657 -0.5276
vn 0.3827 0.0000 -0.9239
vn 0.2856 0.6657 -0.6894
vn 0.0000 0.0000 -1.0000
vn 0.0000 0.6657 -0.7462
vn -0.3827 0.0000 -0.9239
vn -0.2856 0.6657 -0.6894
vn -0.7071 0.0000 -0.7071
vn -0.5276 0.6657 -0.5276
vn -0.9239 0.0000 -0.3827
vn -0.6894 0.6657 -0.2856
vn -1.0000 0.0000 0.0000
vn -0.7462 0.6657 0.0000
vn -0.9239 0.0000 0.3827
vn -0.6894 0.6657 0.2856
vn -0.7071 0.0000 0.7071
vn -0.5276 0.6657 0.5276
vn -0.3827 0.0000 0.9239
vn -0.2856 0.6657 0.6894
vn -0.0000 0.0000 1.0000
vn -0.0000 0.6657 0.7462
vn 0.3827 0.0000 0.9239
vn 0.2856 0.6657 0.6894
vn 0.7071 0.0000 0.7071
vn 0.5276 0.6657 0.5276
vn 0.9239 0.0000 0.3827
vn 0.6894 0.6658 0.2856
# 142 vertex normals

vt 0.4138 0.3104 0.0000
vt 0.5591 0.3447 0.0000
vt 0.4138 0.3743 0.0000
vt 0.4138 0.0164 0.0000
vt 0.5591 0.0157 0.0000
vt 0.5591 0.0999 0.0000
vt 0.4138 0.1004 0.0000
vt 0.5890 0.1033 0.0000
vt 0.5945 0.0885 0.0000
vt 0.6079 0.0993 0.0000
vt 0.6049 0.1105 0.0000
vt 0.5961 0.0275 0.0000
vt 0.6109 0.0192 0.0000
vt 0.6107 0.0362 0.0000
vt 0.5936 0.0349 0.0000
vt 0.6019 0.0579 0.0000
vt 0.6046 0.0684 0.0000
vt 0.5929 0.0707 0.0000
vt 0.5912 0.0598 0.0000
vt 0.4138 0.2806 0.0000
vt 0.4138 0.2906 0.0000
vt 0.4069 0.2902 0.0000
vt 0.4069 0.2810 0.0000
vt 0.6096 0.0099 0.0000
vt 0.6031 0.0210 0.0000
vt 0.5984 0.0140 0.0000
vt 0.4069 0.3098 0.0000
vt 0.4069 0.3010 0.0000
vt 0.4138 0.3006 0.0000
vt 0.5847 0.0323 0.0000
vt 0.5896 0.0221 0.0000
vt 0.4069 0.0161 0.0000
vt 0.4069 0.0083 0.0000
vt 0.4138 0.0069 0.0000
vt 0.6023 0.1661 0.0000
vt 0.5926 0.1659 0.0000
vt 0.5949 0.1540 0.0000
vt 0.6053 0.1539 0.0000
vt 0.6276 0.1060 0.0000
vt 0.6173 0.1043 0.0000
vt 0.6188 0.0966 0.0000
vt 0.6265 0.0962 0.0000
vt 0.6272 0.1147 0.0000
vt 0.6252 0.1234 0.0000
vt 0.6152 0.1223 0.0000
vt 0.6158 0.1140 0.0000
vt 0.4138 0.3838 0.0000
vt 0.4069 0.3814 0.0000
vt 0.4069 0.3746 0.0000
vt 0.5678 0.0943 0.0000
vt 0.5786 0.0985 0.0000
vt 0.5762 0.1081 0.0000
vt 0.5648 0.1035 0.0000
vt 0.6144 0.1416 0.0000
vt 0.6012 0.1433 0.0000
vt 0.6210 0.1326 0.0000
vt 0.6104 0.1302 0.0000
vt 0.6138 0.0780 0.0000
vt 0.6009 0.0802 0.0000
vt 0.6217 0.0868 0.0000
vt 0.6128 0.0910 0.0000
vt 0.5865 0.0791 0.0000
vt 0.5880 0.1135 0.0000
vt 0.6039 0.1202 0.0000
vt 0.5591 0.2807 0.0000
vt 0.5591 0.2909 0.0000
vt 0.5794 0.0662 0.0000
vt 0.5591 0.3010 0.0000
vt 0.5591 0.3108 0.0000
vt 0.5591 0.0061 0.0000
vt 0.5591 0.3750 0.0000
vt 0.5591 0.3845 0.0000
vt 0.6617 0.1060 0.0000
vt 0.6621 0.1147 0.0000
vt 0.6839 0.1539 0.0000
vt 0.6870 0.1661 0.0000
vt 0.6847 0.0684 0.0000
vt 0.6755 0.0780 0.0000
vt 0.6796 0.0099 0.0000
vt 0.6784 0.0192 0.0000
vt 0.6749 0.1416 0.0000
vt 0.6874 0.0579 0.0000
vt 0.4138 0.1827 0.0000
vt 0.5591 0.1488 0.0000
vt 0.5591 0.1827 0.0000
vt 0.7002 0.1033 0.0000
vt 0.6844 0.1105 0.0000
vt 0.6814 0.0993 0.0000
vt 0.6948 0.0885 0.0000
vt 0.6932 0.0275 0.0000
vt 0.6956 0.0349 0.0000
vt 0.6786 0.0362 0.0000
vt 0.6980 0.0598 0.0000
vt 0.6964 0.0707 0.0000
vt 0.4138 0.2127 0.0000
vt 0.4069 0.2122 0.0000
vt 0.4069 0.2030 0.0000
vt 0.4138 0.2026 0.0000
vt 0.6908 0.0140 0.0000
vt 0.6861 0.0210 0.0000
vt 0.4138 0.1925 0.0000
vt 0.4069 0.1921 0.0000
vt 0.4069 0.1832 0.0000
vt 0.7046 0.0323 0.0000
vt 0.6996 0.0221 0.0000
vt 0.4138 0.1096 0.0000
vt 0.4069 0.1101 0.0000
vt 0.4069 0.1011 0.0000
vt 0.6944 0.1540 0.0000
vt 0.6966 0.1659 0.0000
vt 0.6628 0.0962 0.0000
vt 0.6705 0.0966 0.0000
vt 0.6720 0.1043 0.0000
vt 0.6735 0.1140 0.0000
vt 0.6741 0.1223 0.0000
vt 0.6640 0.1234 0.0000
vt 0.4138 0.1187 0.0000
vt 0.4069 0.1180 0.0000
vt 0.7215 0.0943 0.0000
vt 0.7244 0.1035 0.0000
vt 0.7131 0.1081 0.0000
vt 0.7107 0.0985 0.0000
vt 0.6881 0.1433 0.0000
vt 0.6683 0.1326 0.0000
vt 0.6789 0.1302 0.0000
vt 0.6884 0.0802 0.0000
vt 0.6675 0.0868 0.0000
vt 0.6765 0.0910 0.0000
vt 0.7028 0.0791 0.0000
vt 0.7013 0.1135 0.0000
vt 0.6854 0.1202 0.0000
vt 0.5591 0.2128 0.0000
vt 0.5591 0.2026 0.0000
vt 0.7099 0.0662 0.0000
vt 0.5591 0.1925 0.0000
vt 0.5591 0.1093 0.0000
vt 0.5591 0.1187 0.0000
vt 0.2844 0.3742 0.0000
vt 0.2823 0.3819 0.0000
vt 0.1843 0.3819 0.0000
vt 0.1821 0.3742 0.0000
vt 0.1821 0.3102 0.0000
vt 0.2844 0.3102 0.0000
vt 0.1843 0.3041 0.0000
vt 0.2822 0.3041 0.0000
vt 0.1912 0.3011 0.0000
vt 0.2753 0.3011 0.0000
vt 0.2752 0.3888 0.0000
vt 0.1913 0.3888 0.0000
vt 0.2672 0.3909 0.0000
vt 0.1993 0.3909 0.0000
vt 0.8928 0.0379 0.0000
vt 0.9036 0.0379 0.0000
vt 0.9036 0.0521 0.0000
vt 0.8928 0.0521 0.0000
vt 0.9143 0.0379 0.0000
vt 0.9143 0.0521 0.0000
vt 0.9250 0.0379 0.0000
vt 0.9250 0.0521 0.0000
vt 0.9358 0.0379 0.0000
vt 0.9358 0.0521 0.0000
vt 0.7641 0.0379 0.0000
vt 0.7747 0.0379 0.0000
vt 0.7747 0.0521 0.0000
vt 0.7641 0.0521 0.0000
vt 0.7855 0.0379 0.0000
vt 0.7855 0.0521 0.0000
vt 0.7962 0.0379 0.0000
vt 0.7962 0.0521 0.0000
vt 0.8070 0.0379 0.0000
vt 0.8070 0.0521 0.0000
vt 0.8177 0.0379 0.0000
vt 0.8177 0.0521 0.0000
vt 0.8284 0.0379 0.0000
vt 0.8284 0.0521 0.0000
vt 0.8392 0.0379 0.0000
vt 0.8392 0.0521 0.0000
vt 0.8498 0.0379 0.0000
vt 0.8498 0.0521 0.0000
vt 0.8606 0.0379 0.0000
vt 0.8606 0.0521 0.0000
vt 0.8713 0.0379 0.0000
vt 0.8713 0.0521 0.0000
vt 0.8821 0.0379 0.0000
vt 0.8821 0.0521 0.0000
vt 0.9284 0.1326 0.0000
vt 0.9479 0.1407 0.0000
vt 0.9090 0.1407 0.0000
vt 0.9180 0.1347 0.0000
vt 0.9390 0.1347 0.0000
vt 0.9479 0.1796 0.0000
vt 0.9090 0.1796 0.0000
vt 0.9538 0.1496 0.0000
vt 0.9560 0.1602 0.0000
vt 0.9538 0.1707 0.0000
vt 0.9390 0.1856 0.0000
vt 0.9284 0.1877 0.0000
vt 0.9180 0.1856 0.0000
vt 0.9009 0.1602 0.0000
vt 0.9031 0.1496 0.0000
vt 0.9031 0.1707 0.0000
# 201 texture coords

o SM_BottlePlasticE_01
g SM_BottlePlasticE_01
s 1
f 1/1/1 2/2/2 3/3/3 
f 4/4/4 5/5/5 6/6/6 7/7/7 
f 8/8/8 9/9/9 10/10/10 11/11/11 
f 12/12/12 13/13/13 14/14/14 15/15/15 
f 16/16/16 17/17/17 18/18/18 19/19/19 
f 20/20/20 21/21/21 22/22/22 23/23/23 
f 24/24/24 13/13/13 25/25/25 26/26/26 
f 1/1/1 27/27/27 28/28/28 29/29/29 
f 30/30/30 31/31/31 12/12/12 15/15/15 
f 4/4/4 32/32/32 33/33/33 34/34/34 
f 5/35/5 35/36/35 36/37/36 37/38/37 
f 38/39/38 39/40/39 40/41/40 41/42/41 
f 42/43/42 43/44/43 44/45/44 45/46/45 
f 3/3/3 34/47/34 33/48/33 46/49/46 
f 47/50/47 48/51/48 36/52/36 35/53/35 
f 49/54/49 37/38/37 36/37/36 50/55/50 
f 51/56/51 52/57/52 44/45/44 43/44/43 
f 53/58/53 54/59/54 18/18/18 17/17/17 
f 55/60/55 41/42/41 40/41/40 56/61/56 
f 9/9/9 57/62/57 18/18/18 54/59/54 
f 8/8/8 50/63/50 36/52/36 48/51/48 
f 11/11/11 45/46/45 44/45/44 52/64/52 
f 10/10/10 56/61/56 40/41/40 39/40/39 
f 16/16/16 19/19/19 15/15/15 14/14/14 
f 24/65/24 26/66/26 21/21/21 20/20/20 
f 3/3/3 46/49/46 27/27/27 1/1/1 
f 30/30/30 15/15/15 19/19/19 2/67/2 
f 1/1/1 29/29/29 31/68/31 30/69/30 
f 4/4/4 34/34/34 35/70/35 5/5/5 
f 42/43/42 45/46/45 39/40/39 38/39/38 
f 47/71/47 35/72/35 34/47/34 3/3/3 
f 2/67/2 57/62/57 48/51/48 47/50/47 
f 49/54/49 50/55/50 52/57/52 51/56/51 
f 55/60/55 56/61/56 54/59/54 53/58/53 
f 8/8/8 48/51/48 57/62/57 9/9/9 
f 11/11/11 52/64/52 50/63/50 8/8/8 
f 10/10/10 39/40/39 45/46/45 11/11/11 
f 9/9/9 54/59/54 56/61/56 10/10/10 
f 2/67/2 19/19/19 18/18/18 57/62/57 
f 22/22/22 21/21/21 29/29/29 28/28/28 
f 26/26/26 25/25/25 12/12/12 31/31/31 
f 21/21/21 26/66/26 31/68/31 29/29/29 
f 38/39/38 58/73/58 59/74/59 42/43/42 
f 37/38/37 60/75/60 6/76/6 5/35/5 
f 53/58/53 17/17/17 61/77/61 62/78/62 
f 24/24/24 63/79/63 64/80/64 13/13/13 
f 49/54/49 65/81/65 60/75/60 37/38/37 
f 16/16/16 66/82/66 61/77/61 17/17/17 
f 67/83/67 68/84/68 69/85/69 
f 70/86/70 71/87/71 72/88/72 73/89/73 
f 64/80/64 74/90/74 75/91/75 76/92/76 
f 66/82/66 77/93/77 78/94/78 61/77/61 
f 79/95/79 80/96/80 81/97/81 82/98/82 
f 63/79/63 83/99/83 84/100/84 64/80/64 
f 67/83/67 85/101/85 86/102/86 87/103/87 
f 69/104/69 75/91/75 74/90/74 88/105/88 
f 7/7/7 89/106/89 90/107/90 91/108/91 
f 6/76/6 60/75/60 92/109/92 93/110/93 
f 58/73/58 94/111/94 95/112/95 96/113/96 
f 59/74/59 97/114/97 98/115/98 99/116/99 
f 100/117/100 101/118/101 90/107/90 89/106/89 
f 102/119/102 93/120/93 92/121/92 103/122/103 
f 65/81/65 104/123/104 92/109/92 60/75/60 
f 105/124/105 99/116/99 98/115/98 106/125/106 
f 62/78/62 61/77/61 78/94/78 107/126/107 
f 108/127/108 109/128/109 95/112/95 94/111/94 
f 73/89/73 107/126/107 78/94/78 110/129/110 
f 70/86/70 103/122/103 92/121/92 104/130/104 
f 71/87/71 106/131/106 98/115/98 97/114/97 
f 72/88/72 96/113/96 95/112/95 109/128/109 
f 66/82/66 76/92/76 75/91/75 77/93/77 
f 63/132/63 79/95/79 82/98/82 83/133/83 
f 100/117/100 67/83/67 87/103/87 101/118/101 
f 69/104/69 68/134/68 77/93/77 75/91/75 
f 67/83/67 69/85/69 88/135/88 85/101/85 
f 7/7/7 6/6/6 93/136/93 89/106/89 
f 59/74/59 58/73/58 96/113/96 97/114/97 
f 102/137/102 100/117/100 89/106/89 93/136/93 
f 68/134/68 102/119/102 103/122/103 110/129/110 
f 65/81/65 105/124/105 106/125/106 104/123/104 
f 108/127/108 62/78/62 107/126/107 109/128/109 
f 70/86/70 73/89/73 110/129/110 103/122/103 
f 71/87/71 70/86/70 104/130/104 106/131/106 
f 72/88/72 71/87/71 97/114/97 96/113/96 
f 73/89/73 72/88/72 109/128/109 107/126/107 
f 68/134/68 110/129/110 78/94/78 77/93/77 
f 81/97/81 86/102/86 85/101/85 82/98/82 
f 83/99/83 88/105/88 74/90/74 84/100/84 
f 82/98/82 85/101/85 88/135/88 83/133/83 
f 51/56/51 105/124/105 65/81/65 49/54/49 
f 14/14/14 13/13/13 64/80/64 76/92/76 
f 20/20/20 23/23/23 80/96/80 79/95/79 
f 41/42/41 94/111/94 58/73/58 38/39/38 
f 51/56/51 43/44/43 99/116/99 105/124/105 
f 16/16/16 14/14/14 76/92/76 66/82/66 
f 20/20/20 79/95/79 63/132/63 24/65/24 
f 55/60/55 53/58/53 62/78/62 108/127/108 
f 43/44/43 42/43/42 59/74/59 99/116/99 
f 4/4/4 7/7/7 91/108/91 32/32/32 
f 55/60/55 108/127/108 94/111/94 41/42/41 
f 87/138/87 86/139/86 28/140/28 27/141/27 
f 2/2/2 47/71/47 3/3/3 
f 100/117/100 102/137/102 68/84/68 
f 1/1/1 30/69/30 2/2/2 
f 67/83/67 100/117/100 68/84/68 
f 46/142/46 101/143/101 87/138/87 27/141/27 
f 33/144/33 90/145/90 101/143/101 46/142/46 
f 32/146/32 91/147/91 90/145/90 33/144/33 
f 81/148/81 22/149/22 28/140/28 86/139/86 
f 80/150/80 23/151/23 22/149/22 81/148/81 
f 111/152/111 112/153/112 113/154/113 114/155/114 
f 112/153/112 115/156/115 116/157/116 113/154/113 
f 115/156/115 117/158/117 118/159/118 116/157/116 
f 117/158/117 119/160/119 120/161/120 118/159/118 
f 119/162/119 121/163/121 122/164/122 120/165/120 
f 121/163/121 123/166/123 124/167/124 122/164/122 
f 123/166/123 125/168/125 126/169/126 124/167/124 
f 125/168/125 127/170/127 128/171/128 126/169/126 
f 127/170/127 129/172/129 130/173/130 128/171/128 
f 129/172/129 131/174/131 132/175/132 130/173/130 
f 131/174/131 133/176/133 134/177/134 132/175/132 
f 133/176/133 135/178/135 136/179/136 134/177/134 
f 135/178/135 137/180/137 138/181/138 136/179/136 
f 137/180/137 139/182/139 140/183/140 138/181/138 
f 139/182/139 141/184/141 142/185/142 140/183/140 
f 141/184/141 111/152/111 114/155/114 142/185/142 
s 2
f 136/186/136 140/187/140 132/188/132 134/189/134 
s 1
f 12/12/12 25/25/25 13/13/13 
f 64/80/64 84/100/84 74/90/74 
s 2
f 136/186/136 138/190/138 140/187/140 
f 140/187/140 116/191/116 124/192/124 132/188/132 
f 140/187/140 142/193/142 114/194/114 
f 140/187/140 114/194/114 113/195/113 116/191/116 
f 116/191/116 118/196/118 120/197/120 
f 116/191/116 120/197/120 122/198/122 124/192/124 
f 124/192/124 128/199/128 130/200/130 132/188/132 
f 124/192/124 126/201/126 128/199/128 
# 125 polygons - 12 triangles

