# Blender 3.5.1
# www.blender.org
mtllib AddedTrashScene.mtl
o Can_01_GEO
v -49.973507 13.491792 -6.649548
v -50.986008 6.284195 -9.671602
v -48.598343 13.537369 -6.698039
v -53.350235 6.284196 -6.778175
v -47.601826 14.442732 -6.220787
v -52.834427 6.284196 -3.434819
v -47.593185 15.717997 -5.459064
v -50.986656 6.284196 -1.599899
v -48.648457 16.081093 -4.217495
v -47.643192 6.284196 -1.070267
v -49.968971 16.034111 -4.167491
v -45.800495 4.547124 -3.434171
v -51.014194 15.601896 -5.353548
v -45.800388 4.547124 -6.777635
v -51.007713 14.951089 -6.504071
v -47.642651 6.284195 -9.141863
v -48.601906 14.004577 -7.748015
v -49.969833 13.958893 -7.699307
v -47.610577 14.906592 -7.274436
v -47.601826 16.176888 -6.517571
v -48.652233 16.536203 -5.279568
v -49.965191 16.488901 -5.229239
v -51.005661 16.060249 -6.411623
v -50.998966 15.414301 -7.557396
v -47.642651 0.308988 -9.141862
v -47.642651 12.259512 -9.141863
v -45.619701 0.308988 -6.777634
v -45.806541 12.259512 -6.777635
v -45.278961 0.308988 -3.434170
v -45.278961 12.259512 -3.434171
v -47.643192 0.308988 -1.070266
v -47.643192 12.259512 -1.070267
v -50.986656 0.308988 -1.434550
v -50.986656 12.259512 -1.445459
v -53.350666 0.308988 -3.434818
v -53.350666 12.259512 -3.434819
v -52.886375 0.308988 -6.778174
v -53.350235 12.259512 -6.778175
v -50.986008 0.308988 -9.142186
v -50.986008 12.259512 -9.142187
v -47.587357 0.156924 -9.275242
v -45.486431 0.156924 -6.832822
v -45.145584 0.156924 -3.378982
v -47.588001 0.156924 -0.936886
v -51.041843 0.156924 -1.301170
v -53.483829 0.156924 -3.379522
v -53.019756 0.156924 -6.833470
v -51.041302 0.156924 -9.275458
v -53.118141 6.286248 -6.682055
v -50.889996 6.286247 -9.439510
v -46.032478 4.549176 -6.681406
v -47.738770 6.286247 -8.909771
v -47.739418 6.286248 -1.302359
v -47.768902 12.711924 -8.837088
v -46.111427 12.711924 -6.651383
v -45.583740 12.711924 -3.560423
v -47.769444 12.711924 -1.375043
v -50.860294 12.711924 -1.750235
v -53.045677 12.711924 -3.561071
v -53.045567 12.711924 -6.651923
v -50.859756 12.711924 -8.837303
v -45.692062 12.526380 -6.824939
v -47.595131 12.526380 -9.256344
v -45.164482 12.526380 -3.386759
v -47.595886 12.526380 -0.955787
v -51.033958 12.526380 -1.330979
v -53.464931 12.526380 -3.387407
v -53.464714 12.526380 -6.825587
v -51.033421 12.526380 -9.256559
v -47.875500 12.282516 -8.579723
v -46.368790 12.282516 -6.544787
v -45.840996 12.282516 -3.667127
v -47.876038 12.282516 -1.632407
v -50.753700 12.282516 -2.007599
v -52.788311 12.282516 -3.667559
v -52.788204 12.282516 -6.545327
v -50.753265 12.282516 -8.579939
v -46.111427 12.414708 -6.651383
v -47.768902 12.414708 -8.837088
v -45.583740 12.414708 -3.560423
v -47.769444 12.414708 -1.375043
v -50.860294 12.414708 -1.750235
v -53.045677 12.414708 -3.561071
v -53.045567 12.414708 -6.651923
v -50.859756 12.414708 -8.837303
v -47.738770 12.122136 -8.909771
v -46.038635 12.122136 -6.681407
v -45.510948 12.122136 -3.530399
v -47.739418 12.122136 -1.302359
v -50.890427 12.122136 -1.677551
v -53.118465 12.122136 -3.530939
v -53.118141 12.122136 -6.682055
v -50.889996 12.122136 -8.909986
v -47.738770 0.687096 -8.909771
v -45.851902 0.687096 -6.681406
v -45.510948 0.687096 -3.530398
v -47.739418 0.687096 -1.302358
v -50.890427 0.687096 -1.666642
v -53.118465 0.687096 -3.530938
v -52.654175 0.687096 -6.682055
v -50.889996 0.687096 -8.909986
v -47.587357 -0.000000 -9.275242
v -45.486431 -0.000000 -6.832822
v -45.145584 0.000000 -3.378982
v -47.588001 0.000000 -0.936886
v -51.041843 0.000000 -1.301170
v -53.483829 0.000000 -3.379522
v -53.019756 -0.000000 -6.833470
v -51.041302 -0.000000 -9.275458
v -46.032696 4.549176 -3.530399
v -52.602333 6.286248 -3.530939
v -50.890427 6.286248 -1.831991
v -47.765987 12.532752 -8.676707
v -50.850143 12.535344 -8.674763
v -45.582985 14.251788 -7.338371
v -45.579636 16.685352 -5.443727
v -47.758209 17.959320 -3.372396
v -50.842365 17.961912 -3.370344
v -53.025478 16.691507 -5.438975
v -53.028717 14.902489 -7.703628
v -50.850143 12.359843 -8.449259
v -47.765987 12.357252 -8.451311
v -45.582985 14.076180 -7.112976
v -45.579636 16.509745 -5.218224
v -47.758209 17.783819 -3.146892
v -50.842365 17.786413 -3.144948
v -53.025478 16.515900 -5.213471
v -53.028717 14.726988 -7.478124
v -48.133511 12.852756 -7.463652
v -50.460049 12.830400 -7.437299
v -46.474739 14.221980 -6.516383
v -46.468475 16.156908 -5.130527
v -48.155544 17.011080 -3.402096
v -50.453568 16.987860 -3.374988
v -52.137825 16.099560 -5.072964
v -52.136101 14.826672 -6.854747
v -50.457996 13.152023 -8.408976
v -48.135456 13.174488 -8.435543
v -46.479492 14.541768 -7.490220
v -46.473228 16.473997 -6.107063
v -48.157703 17.326008 -4.380576
v -50.451515 17.302679 -4.353360
v -52.133076 16.416325 -6.049284
v -52.131348 15.146135 -7.828367
vn 0.0002 0.8042 -0.5944
vn 0.8138 -0.5099 -0.2786
vn 0.8329 -0.4969 -0.2435
vn 0.9235 -0.3026 -0.2357
vn 0.9234 -0.3027 -0.2358
vn 0.9413 0.2663 0.2073
vn 0.9163 0.3161 0.2461
vn 0.4236 0.7148 0.5564
vn 0.3572 0.7370 0.5738
vn -0.4217 0.7155 0.5570
vn -0.3552 0.7376 0.5742
vn -0.9498 0.2469 0.1922
vn -0.9017 0.3411 0.2656
vn 0.9335 0.0510 -0.3549
vn 0.9317 0.0178 -0.3628
vn 0.9436 0.0220 0.3303
vn 0.9461 0.0658 0.3173
vn -0.9337 -0.2826 -0.2200
vn -0.9367 -0.2763 -0.2150
vn -0.8627 -0.4551 -0.2203
vn -0.8574 -0.4597 -0.2314
vn -0.1167 -0.6573 0.7445
vn 0.0382 -0.7017 0.7115
vn -0.0359 -0.6982 0.7150
vn 0.3467 -0.0032 0.9380
vn 0.3526 0.0296 0.9353
vn -0.4241 0.0004 0.9056
vn -0.4200 0.0277 0.9071
vn -0.9015 -0.0100 0.4326
vn -0.9160 0.0235 0.4004
vn -0.9459 -0.0177 -0.3241
vn -0.9413 -0.0291 -0.3364
vn -0.3738 -0.0078 -0.9275
vn -0.4036 -0.0578 -0.9131
vn 0.0358 0.6982 -0.7150
vn 0.4717 0.0026 -0.8817
vn 0.4657 -0.0165 -0.8848
vn 0.4746 0.0243 -0.8799
vn 0.9322 -0.0172 -0.3616
vn 0.9478 -0.0335 0.3172
vn 0.3434 -0.0232 0.9389
vn -0.4202 -0.0268 0.9070
vn -0.9010 -0.0440 0.4316
vn -0.9467 -0.0073 -0.3220
vn -0.3470 -0.4210 -0.8381
vn -0.3630 0.3165 -0.8764
vn 0.4080 0.3097 -0.8589
vn 0.4019 -0.4294 -0.8088
vn -0.3793 0.0409 -0.9244
vn 0.6789 0.6955 0.2355
vn 0.2325 0.6960 0.6794
vn 0.3170 0.3443 0.8837
vn 0.8828 0.3441 0.3198
vn -0.4005 0.3443 -0.8492
vn 0.3891 0.3438 -0.8546
vn 0.4171 -0.0000 -0.9089
vn -0.4304 -0.0000 -0.9027
vn -0.6641 0.7047 0.2498
vn -0.6809 0.6704 -0.2949
vn -0.8640 0.3393 -0.3719
vn -0.8750 0.3466 0.3379
vn -0.2919 0.6742 0.6784
vn -0.3700 0.3400 0.8646
vn -0.3157 0.6959 -0.6450
vn 0.6777 0.6753 -0.2912
vn 0.8648 0.3402 -0.3694
vn 0.3050 0.6939 -0.6523
vn -0.9182 -0.0000 -0.3961
vn -0.9337 -0.0000 0.3579
vn -0.3941 -0.0000 0.9191
vn 0.3336 -0.0000 0.9427
vn 0.9416 -0.0000 0.3368
vn 0.9193 -0.0000 -0.3934
vn 0.8601 -0.4313 0.2722
vn 0.9001 0.3079 0.3082
vn 0.3235 0.3103 0.8939
vn 0.2941 -0.4286 0.8543
vn -0.8185 -0.4266 0.3847
vn -0.8645 0.3118 0.3941
vn -0.8763 0.3166 -0.3630
vn -0.8380 -0.4209 -0.3472
vn 0.8401 -0.4019 -0.3644
vn 0.8663 0.3323 -0.3730
vn -0.3713 0.3276 0.8688
vn -0.3611 -0.4073 0.8389
vn 0.3826 -0.0000 0.9239
vn 0.9239 -0.0000 0.3827
vn 0.1691 0.9288 -0.3297
vn 0.3647 0.9175 -0.1586
vn 0.3533 0.9295 0.1056
vn 0.1171 0.9285 0.3524
vn -0.1554 0.9200 0.3599
vn -0.3362 0.9279 0.1613
vn -0.3497 0.9256 -0.1449
vn -0.1448 0.9256 -0.3497
vn 0.1687 -0.9052 -0.3901
vn 0.1669 -0.9052 -0.3909
vn 0.3673 -0.9151 -0.1662
vn 0.3626 -0.9151 -0.1763
vn 0.9050 -0.0000 -0.4254
vn 0.3953 -0.0000 -0.9186
vn -0.3262 -0.0000 -0.9453
vn -0.9529 -0.0000 -0.3033
vn -0.9175 -0.0000 0.3976
vn -0.4449 -0.0000 0.8956
vn -0.3688 0.8875 0.2764
vn -0.4140 0.8922 0.1803
vn -0.4149 0.8922 0.1784
vn -0.4011 0.9087 -0.1158
vn -0.3939 0.9088 -0.1376
vn -0.1300 0.9074 -0.3997
vn -0.1445 0.9074 -0.3946
vn 0.1766 0.8957 -0.4082
vn 0.1747 0.8957 -0.4090
vn 0.3795 0.9065 -0.1847
vn 0.3845 0.9066 -0.1742
vn 0.3961 0.9034 0.1641
vn 0.3231 0.8895 0.3231
vn 0.9038 -0.4222 -0.0697
vn -0.3829 -0.9171 -0.1109
vn -0.3761 -0.9172 -0.1316
vn -0.1382 -0.9159 -0.3769
vn -0.1244 -0.9159 -0.3817
vn 0.1567 -0.9123 0.3784
vn -0.1702 -0.9163 0.3624
vn -0.1855 -0.9163 0.3550
vn 0.3784 -0.9123 0.1568
vn -0.3956 -0.9021 0.1723
vn -0.3965 -0.9021 0.1704
vn 0.9000 0.0097 -0.4358
vn 0.4263 -0.0010 -0.9046
vn 0.4219 -0.0294 -0.9062
vn 0.9154 -0.0250 -0.4017
vn -0.0000 1.0000 -0.0000
vn -0.3446 0.0030 -0.9388
vn -0.9449 -0.0254 -0.3265
vn -0.9472 -0.0719 -0.3124
vn -0.3513 -0.0321 -0.9357
vn -0.9323 -0.0201 0.3612
vn -0.4775 -0.0023 0.8786
vn -0.4710 0.0175 0.8819
vn -0.9341 -0.0558 0.3527
vn 0.3733 0.0092 0.9277
vn 0.4050 0.0618 0.9122
vn 0.9470 0.0187 0.3206
vn 0.9422 0.0310 0.3336
vn -0.3410 0.0238 -0.9398
vn -0.9490 0.0343 -0.3134
vn -0.9329 0.0175 0.3598
vn -0.4804 -0.0249 0.8767
vn 0.3788 -0.0419 0.9245
vn 0.9479 0.0075 0.3184
vn 0.8993 0.0449 -0.4351
vn 0.4222 0.0274 -0.9061
vn -0.0000 -1.0000 -0.0000
vn -0.9297 -0.3671 -0.0289
vn -0.0002 -0.8624 0.5062
vn 0.1077 -0.8581 0.5021
vn -0.1773 -0.8263 0.5345
vn -0.0403 0.3262 -0.9444
vn 0.1020 0.3825 -0.9183
vn 0.1196 0.3835 -0.9158
vn -0.0448 0.3198 -0.9464
vn 0.2874 0.4674 -0.8360
vn 0.3090 0.4935 -0.8130
vn 0.2244 0.7284 -0.6474
vn 0.1716 0.7786 -0.6036
vn 0.0112 0.8634 -0.5045
vn 0.0090 0.8603 -0.5097
vn 0.0004 0.8527 -0.5223
vn -0.0004 0.8510 -0.5252
vn -0.1285 0.8214 -0.5556
vn -0.0859 0.8373 -0.5400
vn -0.1519 0.5240 -0.8380
vn -0.1741 0.5983 -0.7821
vn 0.1557 -0.8511 0.5014
vn -0.2451 -0.8056 0.5394
vn 0.3300 -0.6737 0.6612
vn 0.3267 -0.6867 0.6494
vn 0.3783 -0.5635 0.7344
vn 0.3731 -0.5633 0.7372
vn 0.1957 -0.4354 0.8787
vn 0.2296 -0.4586 0.8585
vn -0.2081 -0.4117 0.8873
vn -0.2432 -0.4289 0.8700
vn -0.4118 -0.6198 0.6680
vn -0.4028 -0.6520 0.6423
vn -0.4249 -0.6943 0.5808
vn -0.4332 -0.6866 0.5839
vn -0.2677 -0.6535 0.7080
vn -0.2564 -0.6742 0.6926
vn -0.1802 -0.6172 0.7659
vn -0.2132 -0.7912 0.5732
vn -0.2176 -0.7884 0.5754
vn -0.1259 -0.7109 0.6919
vn -0.1218 -0.7096 0.6940
vn 0.1483 -0.7260 0.6715
vn 0.1464 -0.7250 0.6730
vn 0.1514 -0.6793 0.7180
vn 0.1632 -0.6914 0.7038
vn 0.0941 -0.6008 0.7938
vn 0.0878 -0.5956 0.7985
vn 0.0865 -0.6983 0.7106
vn 0.1485 0.6438 -0.7507
vn 0.1215 0.5351 -0.8360
vn 0.1258 0.5315 -0.8377
vn 0.1431 0.6528 -0.7439
vn 0.0920 0.8317 -0.5476
vn 0.0983 0.8311 -0.5474
vn 0.0762 0.7880 -0.6110
vn 0.0730 0.7867 -0.6129
vn -0.0986 0.8023 -0.5887
vn -0.0967 0.8008 -0.5911
vn -0.0364 0.7211 -0.6919
vn -0.0456 0.7318 -0.6800
vn 0.0215 0.5605 -0.8279
vn 0.0245 0.5602 -0.8280
vn -0.0352 0.6084 -0.7929
vn -0.0354 0.6075 -0.7935
vt 0.963054 0.567938
vt 0.886521 0.489648
vt 0.959791 0.571108
vt 0.886392 0.502513
vt 0.954828 0.571021
vt 0.886552 0.514478
vt 0.951026 0.567163
vt 0.943320 0.542750
vt 0.886676 0.523828
vt 0.950785 0.561228
vt 0.931344 0.542749
vt 0.954000 0.558165
vt 0.920616 0.549006
vt 0.959635 0.558463
vt 0.908671 0.548933
vt 0.892901 0.467454
vt 0.963030 0.561729
vt 0.886634 0.477951
vt 0.965025 0.489662
vt 0.960299 0.489727
vt 0.968532 0.486020
vt 0.968554 0.480806
vt 0.964950 0.476209
vt 0.960372 0.476040
vt 0.956631 0.480322
vt 0.956631 0.484879
vt 0.977195 0.565834
vt 0.907728 0.478542
vt 0.865575 0.478124
vt 0.977930 0.508802
vt 0.908285 0.563740
vt 0.996804 0.467997
vt 0.982716 0.574223
vt 0.908030 0.467448
vt 0.865519 0.467499
vt 0.908123 0.521853
vt 0.989564 0.545283
vt 0.983123 0.520320
vt 0.919960 0.564236
vt 0.993218 0.480092
vt 0.919865 0.521490
vt 0.986538 0.555737
vt 0.931587 0.563883
vt 0.993291 0.491421
vt 0.931597 0.521651
vt 0.986037 0.566459
vt 0.943409 0.563768
vt 0.907953 0.524250
vt 0.996804 0.502220
vt 0.982716 0.522381
vt 0.943409 0.521764
vt 0.865422 0.524785
vt 0.988947 0.579650
vt 0.983808 0.467448
vt 0.908030 0.513321
vt 0.976613 0.532750
vt 0.865056 0.513889
vt 0.978854 0.476725
vt 0.907505 0.501269
vt 0.974245 0.544879
vt 0.865325 0.501948
vt 0.976342 0.486794
vt 0.907352 0.490436
vt 0.974151 0.555433
vt 0.865701 0.490012
vt 0.976061 0.497299
vt 0.976596 0.566093
vt 0.996109 0.467629
vt 0.982243 0.574707
vt 0.992466 0.480014
vt 0.992616 0.491505
vt 0.996186 0.502565
vt 0.982116 0.521830
vt 0.975891 0.532462
vt 0.973518 0.544797
vt 0.973432 0.555559
vt 0.928971 0.488347
vt 0.929088 0.500536
vt 0.935480 0.521381
vt 0.865606 0.538872
vt 0.929212 0.511564
vt 0.886921 0.545056
vt 0.980909 0.507964
vt 0.982809 0.564267
vt 0.985945 0.518617
vt 0.991893 0.546232
vt 0.982809 0.573956
vt 0.971742 0.550873
vt 0.988865 0.556007
vt 0.971742 0.561949
vt 0.988980 0.566248
vt 0.971742 0.572866
vt 0.991893 0.578604
vt 0.985945 0.468999
vt 0.982809 0.521490
vt 0.971742 0.583864
vt 0.981185 0.477575
vt 0.982809 0.531515
vt 0.978874 0.487130
vt 0.982809 0.542432
vt 0.978652 0.497104
vt 0.982809 0.553350
vt 0.990494 0.545455
vt 0.984304 0.519939
vt 0.979069 0.508421
vt 0.987435 0.555912
vt 0.987176 0.566332
vt 0.990122 0.579532
vt 0.984744 0.467804
vt 0.979807 0.477103
vt 0.977311 0.486906
vt 0.976993 0.497229
vt 0.949467 0.505230
vt 0.990701 0.467448
vt 0.873205 0.567267
vt 0.963511 0.578655
vt 0.949377 0.496287
vt 0.907203 0.552048
vt 0.907541 0.549814
vt 0.882149 0.567259
vt 0.899437 0.558866
vt 0.899713 0.543068
vt 0.899596 0.569029
vt 0.899873 0.532905
vt 0.882178 0.593403
vt 0.907203 0.575899
vt 0.942548 0.565277
vt 0.907541 0.526101
vt 0.935932 0.571777
vt 0.872922 0.592803
vt 0.935944 0.581942
vt 0.866357 0.585043
vt 0.942548 0.589669
vt 0.866470 0.574879
vt 0.988148 0.545098
vt 0.970718 0.571323
vt 0.983859 0.573956
vt 0.972792 0.550873
vt 0.950437 0.496038
vt 0.906652 0.551108
vt 0.949389 0.516737
vt 0.983859 0.564267
vt 0.950437 0.505727
vt 0.991790 0.467459
vt 0.972792 0.561949
vt 0.898409 0.558505
vt 0.972792 0.572866
vt 0.898580 0.569421
vt 0.983859 0.521490
vt 0.972792 0.583864
vt 0.906683 0.576857
vt 0.942013 0.564329
vt 0.983859 0.531515
vt 0.934909 0.571402
vt 0.983859 0.542432
vt 0.934923 0.582320
vt 0.949377 0.505820
vt 0.983859 0.553350
vt 0.942016 0.590619
vt 0.989233 0.545190
vt 0.872555 0.566046
vt 0.908652 0.511392
vt 0.906855 0.551015
vt 0.882454 0.565910
vt 0.908599 0.521340
vt 0.865056 0.565463
vt 0.898409 0.543530
vt 0.876126 0.565817
vt 0.898585 0.532401
vt 0.887179 0.565660
vt 0.882454 0.594759
vt 0.906894 0.524878
vt 0.898316 0.565549
vt 0.908466 0.467448
vt 0.872245 0.594009
vt 0.908123 0.477672
vt 0.865056 0.585512
vt 0.908396 0.488933
vt 0.865179 0.574382
vt 0.908771 0.500188
vt 0.908123 0.581023
vt 0.948981 0.510976
vt 0.915176 0.588548
vt 0.949284 0.521397
vt 0.865222 0.525395
vt 0.926095 0.591022
vt 0.876221 0.524878
vt 0.934816 0.584107
vt 0.887169 0.525247
vt 0.949200 0.467954
vt 0.934816 0.572903
vt 0.898316 0.525365
vt 0.929179 0.564329
vt 0.949284 0.478213
vt 0.917934 0.564680
vt 0.948762 0.489595
vt 0.909400 0.569966
vt 0.948604 0.499756
vt 0.976137 0.566309
vt 0.962030 0.521490
vt 0.995488 0.467448
vt 0.981821 0.574984
vt 0.970315 0.529291
vt 0.991883 0.479937
vt 0.972792 0.541297
vt 0.992092 0.491593
vt 0.965117 0.550780
vt 0.995683 0.502728
vt 0.981531 0.521490
vt 0.952850 0.550780
vt 0.975317 0.532249
vt 0.943502 0.544384
vt 0.972934 0.544742
vt 0.943853 0.532080
vt 0.972885 0.555642
vt 0.949897 0.522769
vt 0.876872 0.538786
vt 0.929132 0.477055
vt 0.898228 0.545058
vt 0.929243 0.468388
vt 0.950092 0.516747
vt 0.991494 0.468097
vt 0.968072 0.495945
vt 0.950092 0.505853
vt 0.988980 0.544520
vt 0.956909 0.495846
vt 0.991135 0.478985
vt 0.975969 0.488075
vt 0.990777 0.489872
vt 0.975969 0.476984
vt 0.987404 0.500900
vt 0.968569 0.467811
vt 0.987046 0.511788
vt 0.957390 0.467448
vt 0.989687 0.523013
vt 0.949377 0.476165
vt 0.991790 0.532988
vt 0.949465 0.486522
vt 0.987971 0.544487
vt 0.970574 0.570695
vt 0.990485 0.468063
vt 0.962858 0.578561
vt 0.990127 0.478951
vt 0.951663 0.578532
vt 0.989768 0.489839
vt 0.943568 0.570551
vt 0.986395 0.500867
vt 0.943502 0.558515
vt 0.986037 0.511755
vt 0.951400 0.550873
vt 0.988679 0.522980
vt 0.963152 0.551279
vt 0.990782 0.532955
vt 0.970718 0.558592
vt 0.961093 0.574767
vt 0.966696 0.569128
vt 0.952831 0.574749
vt 0.946572 0.568661
vt 0.946641 0.559385
vt 0.952277 0.554082
vt 0.961121 0.554208
vt 0.966895 0.559712
vt 0.958387 0.493445
vt 0.966711 0.493478
vt 0.972557 0.487501
vt 0.972547 0.479152
vt 0.966952 0.472044
vt 0.958713 0.471756
vt 0.952609 0.478531
vt 0.952775 0.486111
s 1
usemtl Cans
f 79/141/1 85/157/1 114/224/1 113/221/1
f 122/241/2 113/222/3 115/227/4 123/243/5
f 123/243/5 115/227/4 116/229/6 124/245/7
f 124/245/7 116/229/6 117/231/8 125/247/9
f 125/247/9 117/231/8 118/233/10 126/249/11
f 126/249/11 118/233/10 119/235/12 127/251/13
f 27/31/14 14/15/15 12/13/16 29/39/17
f 127/251/13 119/235/12 120/237/18 128/253/19
f 128/253/19 120/237/18 114/225/20 121/239/21
f 1/1/22 3/3/23 5/5/24 7/7/24 9/10/24 11/12/24 13/14/24 15/17/24
f 29/39/17 12/13/16 10/11/25 31/43/26
f 31/43/26 10/11/25 8/8/27 33/47/28
f 33/48/28 8/9/27 6/6/29 35/55/30
f 35/55/30 6/6/29 4/4/31 37/59/32
f 37/59/32 4/4/31 2/2/33 39/63/34
f 17/19/35 18/20/35 24/26/35 23/25/35 22/24/35 21/23/35 20/22/35 19/21/35
f 39/63/34 2/2/33 16/18/36 25/28/37
f 16/18/36 26/29/38 28/35/39 14/16/15
f 14/15/15 28/36/39 30/41/40 12/13/16
f 12/13/16 30/41/40 32/45/41 10/11/25
f 10/11/25 32/45/41 34/51/42 8/8/27
f 8/9/27 34/52/42 36/57/43 6/6/29
f 6/6/29 36/57/43 38/61/44 4/4/31
f 40/66/45 69/112/46 63/105/47 26/30/48
f 4/4/31 38/61/44 40/65/49 2/2/33
f 2/2/33 40/65/49 26/29/38 16/18/36
f 29/40/50 31/44/51 44/71/52 43/70/53
f 48/76/54 41/67/55 102/199/56 109/215/57
f 35/56/58 37/60/59 47/75/60 46/74/61
f 31/44/51 33/49/62 45/72/63 44/71/52
f 37/60/59 39/64/64 48/76/54 47/75/60
f 27/32/65 29/40/50 43/70/53 42/68/66
f 33/50/62 35/56/58 46/74/61 45/73/63
f 39/64/64 25/27/67 41/67/55 48/76/54
f 25/27/67 27/33/65 42/69/66 41/67/55
f 46/74/61 47/75/60 108/213/68 107/211/69
f 44/71/52 45/72/63 106/208/70 105/206/71
f 42/68/66 43/70/53 104/204/72 103/201/73
f 47/75/60 48/76/54 109/215/57 108/213/68
f 45/73/63 46/74/61 107/211/69 106/209/70
f 43/70/53 44/71/52 105/206/71 104/204/72
f 41/67/55 42/69/66 103/202/73 102/199/56
f 30/42/74 64/106/75 65/107/76 32/46/77
f 36/58/78 67/110/79 68/111/80 38/62/81
f 28/37/82 62/103/83 64/106/75 30/42/74
f 32/46/77 65/107/76 66/108/84 34/53/85
f 38/62/81 68/111/80 69/112/46 40/66/45
f 34/54/85 66/109/84 67/110/79 36/58/78
f 61/102/86 60/100/87 84/155/87 85/158/86
f 54/83/88 55/85/89 62/104/83 63/105/47
f 55/86/89 56/89/90 64/106/75 62/103/83
f 56/89/90 57/91/91 65/107/76 64/106/75
f 57/91/91 58/93/92 66/108/84 65/107/76
f 58/94/92 59/97/93 67/110/79 66/109/84
f 59/97/93 60/99/94 68/111/80 67/110/79
f 60/99/94 61/101/95 69/112/46 68/111/80
f 61/101/95 54/83/88 63/105/47 69/112/46
f 74/125/96 90/171/97 91/175/98 75/130/99
f 59/98/100 58/95/101 82/149/101 83/153/100
f 57/92/102 56/90/103 80/145/103 81/147/102
f 55/87/104 54/84/105 79/142/105 78/137/104
f 54/84/105 61/102/86 85/158/86 79/142/105
f 60/100/87 59/98/100 83/153/100 84/155/87
f 58/96/101 57/92/102 81/147/102 82/150/101
f 56/90/103 55/88/104 78/138/104 80/145/103
f 70/113/106 71/117/107 78/139/108 79/143/106
f 71/118/107 72/121/109 80/146/110 78/140/108
f 72/121/109 73/123/111 81/148/112 80/146/110
f 73/123/111 74/126/113 82/151/114 81/148/112
f 74/127/113 75/129/115 83/154/116 82/152/114
f 75/129/115 76/131/117 84/156/117 83/154/116
f 76/131/117 77/133/118 85/159/118 84/156/117
f 70/114/119 79/144/119 113/222/3 122/241/2
f 72/122/120 88/167/121 89/169/122 73/124/123
f 77/134/124 93/179/124 86/161/125 70/115/126
f 75/130/99 91/175/98 92/177/127 76/132/127
f 73/124/123 89/169/122 90/172/97 74/128/96
f 71/119/128 87/163/129 88/167/121 72/122/120
f 26/30/48 63/105/47 62/104/83 28/38/82
f 76/132/127 92/177/127 93/179/124 77/134/124
f 111/218/130 112/220/131 98/190/132 99/194/133
f 95/183/134 94/181/134 101/197/134 100/195/134 99/193/134 98/191/134 97/188/134 96/186/134
f 53/82/135 110/217/136 96/187/137 97/189/138
f 51/79/139 52/81/140 94/182/141 95/184/142
f 52/81/140 50/78/143 101/198/144 94/182/141
f 49/77/145 111/218/130 99/194/133 100/196/146
f 112/219/131 53/82/135 97/189/138 98/192/132
f 110/217/136 51/80/139 95/185/142 96/187/137
f 50/78/143 49/77/145 100/196/146 101/198/144
f 70/115/126 86/161/125 87/164/129 71/120/128
f 89/170/147 88/168/148 110/217/136 53/82/135
f 87/165/149 86/162/150 52/81/140 51/79/139
f 86/162/150 93/180/151 50/78/143 52/81/140
f 92/178/152 91/176/153 111/218/130 49/77/145
f 90/173/154 89/170/147 53/82/135 112/219/131
f 88/168/148 87/166/149 51/80/139 110/217/136
f 102/200/155 103/203/155 104/205/155 105/207/155 106/210/155 107/212/155 108/214/155 109/216/155
f 93/180/151 92/178/152 49/77/145 50/78/143
f 91/176/153 90/174/154 112/220/131 111/218/130
f 85/160/156 77/135/156 121/239/21 114/225/20
f 77/136/157 70/116/157 122/242/158 121/240/159
f 25/28/37 16/18/36 14/16/15 27/34/14
f 137/263/160 138/264/161 113/223/162 114/226/163
f 138/264/161 139/265/164 115/228/165 113/223/162
f 139/265/164 140/266/166 116/230/167 115/228/165
f 140/266/166 141/267/168 117/232/169 116/230/167
f 141/267/168 142/268/170 118/234/171 117/232/169
f 142/268/170 143/269/172 119/236/173 118/234/171
f 143/269/172 144/270/174 120/238/175 119/236/173
f 144/270/174 137/263/160 114/226/163 120/238/175
f 129/255/176 130/256/177 121/240/159 122/242/158
f 131/257/178 129/255/176 122/242/158 123/244/179
f 132/258/180 131/257/178 123/244/179 124/246/181
f 133/259/182 132/258/180 124/246/181 125/248/183
f 134/260/184 133/259/182 125/248/183 126/250/185
f 135/261/186 134/260/184 126/250/185 127/252/187
f 136/262/188 135/261/186 127/252/187 128/254/189
f 130/256/177 136/262/188 128/254/189 121/240/159
f 1/1/22 15/17/190 136/262/191 130/256/192
f 15/17/190 13/14/193 135/261/194 136/262/191
f 13/14/193 11/12/195 134/260/196 135/261/194
f 11/12/195 9/10/197 133/259/198 134/260/196
f 9/10/197 7/7/199 132/258/200 133/259/198
f 7/7/199 5/5/201 131/257/202 132/258/200
f 5/5/201 3/3/23 129/255/203 131/257/202
f 3/3/23 1/1/22 130/256/192 129/255/203
f 24/26/204 18/20/205 137/263/206 144/270/207
f 23/25/208 24/26/204 144/270/207 143/269/209
f 22/24/210 23/25/208 143/269/209 142/268/211
f 21/23/212 22/24/210 142/268/211 141/267/213
f 20/22/214 21/23/212 141/267/213 140/266/215
f 19/21/216 20/22/214 140/266/215 139/265/217
f 17/19/218 19/21/216 139/265/217 138/264/219
f 18/20/205 17/19/218 138/264/219 137/263/206
