# Blender 3.5.1
# www.blender.org
o Can_03_GEO
v 975.357056 58.412975 -0.000401
v -172.123993 -56.839043 -359.963104
v 556.759521 246.868195 -254.532227
v -188.640198 178.365524 -254.532227
v 482.623138 321.832733 -0.000421
v -208.048889 281.988495 -0.000418
v 752.189697 151.410065 241.770996
v -188.640198 178.365555 254.531403
v 670.518433 241.829422 170.958847
v -172.123993 -56.838993 359.962311
v 957.382874 -17.892904 254.531418
v -374.541016 -300.873199 254.531448
v 752.189697 151.410034 -241.771790
v -409.299652 -400.413818 -0.000366
v 957.382874 -17.892944 -254.532196
v -374.541016 -300.873260 -254.532166
v 725.316040 -11.396084 -359.963104
v 909.992004 85.648415 -170.959656
v 909.992004 85.648438 170.958847
v 556.759521 246.868256 254.531403
v 725.316040 -11.396029 359.962311
v 620.724731 292.182892 -0.000419
v 1054.707275 -58.448650 -0.000392
v 670.518433 241.829361 -170.959656
v 683.337036 254.508072 -170.959656
v 633.543701 304.861603 -0.000420
v 683.337036 254.508118 170.958847
v 759.129822 168.066269 241.770996
v 759.129822 168.066238 -241.771790
v 916.932129 102.304588 170.958847
v 982.297119 75.057480 -0.000402
v 916.932129 102.304565 -170.959656
v -454.905975 -3.196291 -284.217102
v -388.642700 186.530289 -200.971130
v -361.197296 265.122314 -0.000417
v -388.642700 186.530319 200.970322
v -454.905975 -3.196248 284.216309
v -571.067688 -150.769211 200.970337
v -628.979370 -210.570526 -0.000381
v -571.067688 -150.769241 -200.971100
v -475.971039 4.152013 -297.047485
v -406.721924 202.451721 -210.045700
v -378.028442 284.589600 -0.000418
v -406.721924 202.451752 210.044907
v -475.971039 4.152058 297.046722
v -593.404175 -141.764557 210.044922
v -653.928711 -204.271973 -0.000381
v -593.404175 -141.764587 -210.045670
v -493.432037 10.252298 -266.056244
v -431.402863 187.860001 -188.129059
v -405.707062 261.436584 -0.000416
v -431.402863 187.860031 188.128250
v -493.432037 10.252338 266.055450
v -591.432983 -113.152786 188.128281
v -645.647278 -169.128342 -0.000384
v -591.432983 -113.152817 -188.129028
v -439.626038 -8.538425 -256.748383
v -379.766357 162.864059 -181.550568
v -354.968781 233.862869 -0.000414
v -379.766357 162.864075 181.549744
v -439.626038 -8.538387 256.759247
v -545.920044 -148.086456 181.549759
v -598.244690 -202.102478 -0.000381
v -545.920044 -148.086487 -181.550552
v -461.810974 -0.793534 -228.568130
v -408.529846 151.794937 -161.616806
v -386.449951 215.002182 -0.000413
v -408.529846 151.794952 161.627640
v -461.810974 -0.793499 228.567337
v -548.940979 -117.410149 161.627670
v -595.515381 -165.500854 -0.000384
v -548.940979 -117.410179 -161.616776
v 34.830605 -22.943432 -254.532196
v 31.506369 82.429123 -0.000403
v -70.460373 -446.113342 254.531448
v -70.460373 -446.113342 -254.532166
v 40.032654 -187.965744 -359.963074
v 34.830605 -22.943394 254.531418
v 40.032654 -187.965698 359.962341
v -67.136139 -551.485962 -0.000355
v 242.484604 -62.822655 -254.532196
v 179.860504 12.736761 -0.000397
v 461.686371 -476.346466 254.531448
v 461.686371 -476.346466 -254.532166
v 242.484604 -62.822617 254.531418
v 390.874207 -155.843018 359.962311
v 524.321899 -551.905823 -0.000355
v 390.874207 -155.843063 -359.963104
vn 0.0211 0.0456 -0.9987
vn 0.1361 0.1343 -0.9815
vn 0.5701 0.6761 -0.4668
vn 0.3392 0.7152 -0.6111
vn 0.6545 0.7560 -0.0000
vn 0.5097 0.8604 -0.0000
vn 0.5701 0.6761 0.4668
vn 0.3392 0.7152 0.6111
vn 0.1361 0.1343 0.9815
vn 0.0211 0.0456 0.9987
vn -0.3088 -0.6480 0.6963
vn -0.1765 -0.7004 0.6915
vn -0.4168 -0.9090 -0.0000
vn -0.2134 -0.9770 -0.0000
vn -0.0848 0.9964 -0.0000
vn -0.1516 0.6722 -0.7247
vn -0.1424 0.7198 -0.6795
vn -0.3088 -0.6480 -0.6963
vn -0.1765 -0.7004 -0.6915
vn 0.2904 0.8162 -0.4995
vn 0.2099 0.9777 -0.0000
vn 0.2858 0.8277 -0.4830
vn 0.6288 0.5869 0.5101
vn 0.8273 0.5617 -0.0000
vn 0.6472 0.5863 0.4873
vn 0.6288 0.5869 -0.5101
vn 0.6472 0.5863 -0.4873
vn 0.3950 0.5830 0.7100
vn 0.3767 0.5923 0.7122
vn 0.2904 0.8162 0.4995
vn 0.2858 0.8277 0.4830
vn 0.3950 0.5830 -0.7100
vn 0.3767 0.5923 -0.7122
vn 0.0143 0.0481 0.9987
vn 0.6527 -0.2720 0.7071
vn -0.0944 0.1088 0.9896
vn 0.9230 -0.3847 -0.0000
vn 0.6527 -0.2720 -0.7071
vn -0.5704 0.4983 0.6529
vn -0.5737 0.5038 0.6458
vn -0.7032 0.7110 -0.0000
vn 0.0143 0.0481 -0.9987
vn -0.0944 0.1088 -0.9896
vn -0.5704 0.4983 -0.6529
vn -0.5737 0.5038 -0.6458
vn 0.5481 0.8364 -0.0000
vn 0.4173 -0.2052 -0.8853
vn -0.1899 0.0598 -0.9800
vn 0.0208 0.7235 -0.6900
vn 0.6727 0.4144 -0.6130
vn -0.5068 -0.4634 0.7269
vn -0.2618 0.1542 0.9527
vn -0.2804 0.0747 0.9570
vn -0.5320 -0.5086 0.6770
vn -0.2618 0.1542 -0.9527
vn -0.5068 -0.4634 -0.7269
vn -0.5320 -0.5086 -0.6770
vn -0.2804 0.0747 -0.9570
vn -0.1516 0.6722 0.7247
vn -0.1424 0.7198 0.6795
vn -0.6627 -0.7489 -0.0000
vn 0.6727 0.4144 0.6130
vn 0.0208 0.7235 0.6900
vn -0.1899 0.0598 0.9800
vn 0.4173 -0.2052 0.8853
vn -0.2449 -0.9696 -0.0000
vn -0.8360 -0.5487 -0.0000
vn -0.6182 -0.3923 -0.6811
vn -0.0365 -0.8058 -0.5911
vn -0.6182 -0.3923 0.6811
vn -0.0365 -0.8058 0.5911
vn 0.7564 0.6541 -0.0000
vn 0.1151 0.9934 -0.0000
vn -0.9733 0.2295 -0.0000
vn -0.8918 0.2946 -0.3433
vn -0.0753 0.1097 -0.9911
vn -0.1112 0.0354 -0.9932
vn 0.3450 0.6535 -0.6737
vn 0.3296 0.6423 -0.6920
vn -0.7700 0.4129 0.4863
vn -0.8918 0.2946 0.3433
vn -0.6417 0.7669 -0.0000
vn -0.6912 0.6252 0.3623
vn -0.7700 0.4129 -0.4863
vn -0.6912 0.6252 -0.3623
vn -0.4775 -0.8787 -0.0000
vn -0.3821 -0.6058 -0.6979
vn -0.3821 -0.6057 -0.6979
vn 0.3296 0.6423 0.6920
vn 0.3450 0.6536 0.6737
vn -0.1113 0.0355 0.9932
vn -0.0754 0.1098 0.9911
vn 0.5706 0.8212 -0.0000
vn 0.5710 0.8209 -0.0000
vn -0.3822 -0.6057 0.6979
vn -0.8872 0.1605 -0.4325
vn -0.9972 0.0743 -0.0000
vn -0.8835 0.1637 -0.4388
vn -0.8816 0.4721 -0.0000
vn -0.8873 0.1604 0.4325
vn -0.6905 0.3809 0.6149
vn -0.7013 0.3633 0.6133
vn -0.8835 0.1637 0.4389
vn -0.5758 0.6808 0.4528
vn -0.5139 0.8578 -0.0000
vn -0.5758 0.6807 0.4529
vn -0.5758 0.6807 -0.4528
vn -0.6905 0.3809 -0.6149
vn -0.7013 0.3633 -0.6133
vn 0.2423 -0.7110 -0.6602
vn -0.0065 0.0054 -1.0000
vn 0.3786 -0.9256 -0.0000
vn 0.2423 -0.7110 0.6602
vn -0.0065 0.0054 1.0000
vn -0.1587 0.7078 0.6883
vn -0.1835 0.9830 -0.0000
vn -0.1587 0.7078 -0.6883
vn 0.0861 -0.1138 -0.9898
vn -0.4967 0.5465 -0.6742
vn -0.7081 0.7061 -0.0000
vn -0.4967 0.5465 0.6742
vn 0.0861 -0.1138 0.9898
vn 0.5431 -0.6123 0.5746
vn 0.6801 -0.7331 -0.0000
vn 0.5431 -0.6123 -0.5746
vt 0.955090 0.813402
vt 0.935340 0.834715
vt 0.986751 0.853744
vt 0.990589 0.822416
vt 0.953278 0.795689
vt 0.895537 0.833472
vt 0.923263 0.812932
vt 0.941466 0.754696
vt 0.942227 0.798516
vt 0.901990 0.843372
vt 0.934355 0.806944
vt 0.953839 0.841163
vt 0.929745 0.759158
vt 0.875550 0.781003
vt 0.929976 0.797409
vt 0.876148 0.742755
vt 0.910094 0.853026
vt 0.890078 0.806732
vt 0.944224 0.825202
vt 0.987713 0.839102
vt 0.888409 0.741766
vt 0.881881 0.816308
vt 0.947576 0.830710
vt 0.989042 0.845411
vt 0.899433 0.744699
vt 0.875334 0.826145
vt 0.942909 0.813089
vt 0.906338 0.800156
vt 0.912771 0.736481
vt 0.879847 0.840751
vt 0.924588 0.822812
vt 0.984036 0.837030
vt 0.925513 0.733556
vt 0.979250 0.807082
vt 0.883218 0.852897
vt 0.903677 0.806797
vt 0.923156 0.834912
vt 0.960715 0.740300
vt 0.966537 0.804035
vt 0.900190 0.818910
vt 0.915812 0.825849
vt 0.955556 0.751022
vt 0.927952 0.830581
vt 0.985393 0.845387
vt 0.947663 0.817466
vt 0.989151 0.830759
vt 0.942805 0.835069
vt 0.887228 0.785576
vt 0.935478 0.822082
vt 0.901282 0.789385
vt 0.935442 0.813315
vt 0.954987 0.834803
vt 0.990439 0.853761
vt 0.986902 0.822398
vt 0.953967 0.807038
vt 0.934155 0.841068
vt 0.916690 0.806782
vt 0.971130 0.733775
vt 0.927992 0.817336
vt 0.985425 0.830734
vt 0.986238 0.830878
vt 0.955122 0.822965
vt 0.991253 0.853625
vt 0.987715 0.822542
vt 0.955176 0.814499
vt 0.989856 0.845275
vt 0.961094 0.808444
vt 0.988526 0.839242
vt 0.967124 0.807101
vt 0.984850 0.836898
vt 0.958462 0.828162
vt 0.989964 0.830899
vt 0.972889 0.813301
vt 0.987566 0.853611
vt 0.991402 0.822556
vt 0.972849 0.821768
vt 0.986208 0.845255
vt 0.966921 0.827812
vt 0.908755 0.830200
vt 0.975635 0.823994
vt 0.910825 0.839935
vt 0.976982 0.833400
vt 0.915625 0.848655
vt 0.895566 0.811156
vt 0.989156 0.785184
vt 0.980307 0.844161
vt 0.890684 0.819829
vt 0.985543 0.794455
vt 0.888520 0.829543
vt 0.983622 0.803508
vt 0.891212 0.838548
vt 0.984976 0.812319
vt 0.895391 0.847580
vt 0.915799 0.812230
vt 0.981091 0.807168
vt 0.988426 0.822327
vt 0.911533 0.821222
vt 0.977344 0.815962
vt 0.976677 0.823900
vt 0.978220 0.833115
vt 0.990315 0.785394
vt 0.981861 0.843969
vt 0.986696 0.794792
vt 0.984683 0.803654
vt 0.986171 0.811974
vt 0.982364 0.807463
vt 0.989857 0.822102
vt 0.978412 0.816344
vt 0.978152 0.823767
vt 0.994178 0.803793
vt 0.979922 0.832683
vt 0.995138 0.794526
vt 0.991575 0.786483
vt 0.983355 0.842804
vt 0.994606 0.857127
vt 0.994950 0.785211
vt 0.988111 0.795216
vt 0.994882 0.847815
vt 0.986336 0.803884
vt 0.994011 0.838539
vt 0.987630 0.811566
vt 0.994586 0.830516
vt 0.983519 0.808574
vt 0.991410 0.820784
vt 0.995011 0.821131
vt 0.979743 0.816790
vt 0.994676 0.811821
vt 0.983773 0.771980
vt 0.991572 0.803359
vt 0.987282 0.780257
vt 0.992498 0.794416
vt 0.991975 0.856886
vt 0.992317 0.785427
vt 0.995082 0.733890
vt 0.994836 0.785133
vt 0.992242 0.847899
vt 0.987481 0.738693
vt 0.991401 0.838948
vt 0.983893 0.746936
vt 0.991959 0.830234
vt 0.987246 0.754999
vt 0.992368 0.821252
vt 0.992369 0.821063
vt 0.995044 0.759473
vt 0.992047 0.812078
vt 0.987203 0.763949
vt 0.959877 0.848009
vt 0.985443 0.771808
vt 0.967878 0.847789
vt 0.988567 0.779176
vt 0.973499 0.842092
vt 0.995522 0.735510
vt 0.995291 0.783517
vt 0.973538 0.834088
vt 0.988756 0.739786
vt 0.968025 0.828286
vt 0.985561 0.747124
vt 0.960709 0.828758
vt 0.988472 0.753853
vt 0.995398 0.761192
vt 0.955141 0.834508
vt 0.995415 0.757835
vt 0.955028 0.842511
vt 0.988418 0.765108
vt 0.948346 0.785552
vt 0.881309 0.755684
vt 0.935260 0.784530
vt 0.917095 0.751118
vt 0.971001 0.789440
vt 0.957875 0.785029
vt 0.894404 0.754788
vt 0.903927 0.755403
vt 0.983608 0.790011
vt 0.929708 0.750667
vt 0.949848 0.774553
vt 0.936864 0.777523
vt 0.882845 0.762707
vt 0.918314 0.773395
vt 0.972433 0.767176
vt 0.895800 0.765801
vt 0.903515 0.772559
vt 0.929581 0.777147
vt 0.983735 0.763532
vt 0.957626 0.767869
s 1
f 77/170/1 2/5/2 4/9/3 73/165/4
f 73/165/4 4/9/3 6/15/5 74/167/6
f 74/166/6 6/16/5 8/21/7 78/171/8
f 78/171/8 8/21/7 10/25/9 79/172/10
f 79/172/10 10/25/9 12/29/11 75/168/12
f 75/168/12 12/29/11 14/33/13 80/174/14
f 6/17/15 4/10/16 34/81/17 35/83/15
f 80/173/14 14/34/13 16/39/18 76/169/19
f 76/169/19 16/39/18 2/5/2 77/170/1
f 3/7/20 5/11/21 22/51/21 24/59/22
f 11/27/23 23/55/24 1/1/24 19/45/25
f 23/56/24 15/37/26 18/43/27 1/2/24
f 21/49/28 11/27/23 19/45/25 7/19/29
f 20/47/30 21/49/28 7/19/29 9/23/31
f 15/37/26 17/41/32 13/31/33 18/43/27
f 17/41/32 3/7/20 24/59/22 13/31/33
f 5/12/21 20/47/30 9/23/31 22/52/21
f 7/20/34 19/46/35 30/72/35 28/68/36
f 1/3/37 18/44/38 32/77/38 31/74/37
f 9/24/39 7/20/34 28/68/36 27/66/40
f 22/53/41 9/24/39 27/66/40 26/63/41
f 19/46/35 1/4/37 31/75/37 30/72/35
f 18/44/38 13/32/42 29/70/43 32/77/38
f 24/60/44 22/54/41 26/64/41 25/61/45
f 13/32/42 24/60/44 25/61/45 29/70/43
f 30/73/46 31/76/46 32/78/46 29/71/46 25/62/46 26/65/46 27/67/46 28/69/46
f 33/80/47 41/99/48 42/100/49 34/82/50
f 12/30/51 10/26/52 37/89/53 38/91/54
f 2/6/55 16/40/56 40/97/57 33/79/58
f 4/10/16 2/6/55 33/79/58 34/81/17
f 8/22/59 6/18/15 35/84/15 36/87/60
f 14/35/61 12/30/51 38/91/54 39/93/61
f 10/26/52 8/22/59 36/87/60 37/89/53
f 16/40/56 14/36/61 39/94/61 40/97/57
f 36/88/62 44/103/63 45/104/64 37/90/65
f 39/95/66 47/106/67 48/108/68 40/98/69
f 37/90/65 45/104/64 46/105/70 38/92/71
f 36/88/62 35/85/72 43/101/73 44/103/63
f 40/98/69 48/108/68 41/99/48 33/80/47
f 38/92/71 46/105/70 47/107/67 39/96/66
f 34/82/50 42/100/49 43/102/73 35/86/72
f 48/108/68 47/106/67 55/123/74 56/126/75
f 53/120/76 61/138/77 62/140/78 54/122/79
f 46/105/70 45/104/64 53/119/80 54/121/81
f 44/103/63 43/101/73 51/113/82 52/117/83
f 42/100/49 41/99/48 49/109/84 50/111/85
f 41/99/48 48/108/68 56/126/75 49/109/84
f 47/107/67 46/105/70 54/121/81 55/124/74
f 45/104/64 44/103/63 52/117/83 53/119/80
f 43/102/73 42/100/49 50/111/85 51/114/82
f 51/115/86 59/132/86 60/136/87 52/118/88
f 56/127/89 64/145/90 57/129/91 49/110/92
f 54/122/79 62/140/78 63/142/93 55/125/94
f 52/118/88 60/136/87 61/138/77 53/120/76
f 50/112/95 58/131/95 59/133/86 51/116/86
f 55/125/94 63/143/93 64/145/90 56/127/89
f 64/146/96 63/144/97 71/160/97 72/164/98
f 66/149/99 65/147/99 72/163/99 71/161/99 70/158/99 69/156/99 68/154/99 67/151/99
f 62/141/100 61/139/101 69/157/102 70/159/103
f 60/137/104 59/134/105 67/152/105 68/155/106
f 58/130/107 57/128/108 65/148/109 66/150/107
f 57/128/108 64/146/96 72/164/98 65/148/109
f 63/144/97 62/141/100 70/159/103 71/162/97
f 61/139/101 60/137/104 68/155/106 69/157/102
f 59/135/105 58/130/107 66/150/107 67/153/105
f 49/110/92 57/129/91 58/131/95 50/112/95
f 84/179/110 76/169/19 77/170/1 88/184/111
f 87/183/112 80/173/14 76/169/19 84/179/110
f 83/178/113 75/168/12 80/174/14 87/182/112
f 86/181/114 79/172/10 75/168/12 83/178/113
f 85/180/115 78/171/8 79/172/10 86/181/114
f 82/177/116 74/166/6 78/171/8 85/180/115
f 81/175/117 73/165/4 74/167/6 82/176/116
f 88/184/111 77/170/1 73/165/4 81/175/117
f 17/42/118 88/184/111 81/175/117 3/8/119
f 3/8/119 81/175/117 82/176/116 5/13/120
f 5/14/120 82/177/116 85/180/115 20/48/121
f 20/48/121 85/180/115 86/181/114 21/50/122
f 21/50/122 86/181/114 83/178/113 11/28/123
f 11/28/123 83/178/113 87/182/112 23/57/124
f 23/58/124 87/183/112 84/179/110 15/38/125
f 15/38/125 84/179/110 88/184/111 17/42/118
