# Blender 3.5.1
# www.blender.org
mtllib clockshape_2.mtl
o Cube.001
v -0.279553 -1.094128 0.173819
v -1.018699 1.013147 0.991420
v -0.279553 -1.094128 -0.188156
v -1.018699 1.013147 -1.008580
v 0.253131 -1.094128 0.173819
v 0.981301 1.013147 0.991420
v 0.253131 -1.094128 -0.188156
v 0.981301 1.013147 -1.008580
v -0.010519 -1.094128 -0.281490
v -0.011044 1.013147 -1.008580
v -0.010519 -1.094128 0.266103
v -0.011044 1.013147 0.991420
v -0.302985 -1.094128 -0.009758
v -1.018699 1.013147 -0.016120
v 0.277502 -1.094128 -0.009758
v 0.981301 1.013147 -0.016120
v -0.011044 1.013147 -0.016120
v 0.260854 -1.245117 0.177363
v 1.000000 -3.352392 1.000000
v 0.260854 -1.245117 -0.184612
v 1.000000 -3.352392 -1.000000
v -0.271829 -1.245117 0.177363
v -1.000000 -3.352392 1.000000
v -0.271829 -1.245117 -0.184612
v -1.000000 -3.352392 -1.000000
v -0.008180 -1.245117 -0.277946
v -0.007655 -3.352392 -1.000000
v -0.008180 -1.245117 0.269647
v -0.007655 -3.352392 1.000000
v 0.284286 -1.245117 -0.006214
v 1.000000 -3.352392 -0.007540
v -0.296201 -1.245117 -0.006214
v -1.000000 -3.352392 -0.007540
v -0.007655 -3.352392 -0.007540
vn -0.9439 -0.3296 -0.0189
vn 0.0693 -0.3544 -0.9325
vn 0.9455 -0.3250 0.0193
vn -0.0674 -0.3534 0.9330
vn -0.0000 1.0000 -0.0000
vn 0.0685 -0.3534 0.9330
vn -0.0682 -0.3544 -0.9326
vn 0.9455 -0.3251 -0.0197
vn -0.9440 -0.3294 0.0186
vn 0.9440 0.3295 -0.0189
vn -0.0694 0.3524 -0.9333
vn -0.9455 0.3250 0.0193
vn 0.0674 0.3554 0.9323
vn -0.0000 -1.0000 -0.0000
vn -0.0685 0.3553 0.9322
vn 0.0682 0.3525 -0.9333
vn -0.9455 0.3251 -0.0197
vn 0.9440 0.3295 0.0186
vn -0.3274 0.0113 0.9448
vn 0.3272 0.0331 0.9444
vn 0.9904 0.0506 0.1289
vn 0.9902 0.0445 -0.1327
vn 0.3307 -0.0111 -0.9437
vn -0.3305 -0.0332 -0.9432
vn -0.9899 -0.0507 -0.1326
vn -0.9906 -0.0446 0.1290
vt 0.375000 1.000000
vt 0.375000 0.000000
vt 0.625000 1.000000
vt 0.875000 0.750000
vt 0.625000 0.000000
vt 0.375000 0.250000
vt 0.625000 0.250000
vt 0.875000 0.500000
vt 0.375000 0.750000
vt 0.625000 0.750000
vt 0.375000 0.500000
vt 0.625000 0.500000
vt 0.375000 0.375957
vt 0.625000 0.375957
vt 0.749043 0.500000
vt 0.375000 0.874043
vt 0.749043 0.750000
vt 0.625000 0.874043
vt 0.375000 0.125943
vt 0.875000 0.624057
vt 0.625000 0.125943
vt 0.375000 0.624057
vt 0.625000 0.624057
vt 0.749043 0.624057
vt 0.375000 1.000000
vt 0.375000 0.000000
vt 0.625000 1.000000
vt 0.875000 0.750000
vt 0.625000 0.000000
vt 0.375000 0.250000
vt 0.625000 0.250000
vt 0.875000 0.500000
vt 0.375000 0.750000
vt 0.625000 0.750000
vt 0.375000 0.500000
vt 0.625000 0.500000
vt 0.375000 0.375957
vt 0.625000 0.375957
vt 0.749043 0.500000
vt 0.375000 0.874043
vt 0.749043 0.750000
vt 0.625000 0.874043
vt 0.375000 0.125943
vt 0.875000 0.624057
vt 0.625000 0.125943
vt 0.375000 0.624057
vt 0.625000 0.624057
vt 0.749043 0.624057
s 0
f 13/19/1 14/21/1 4/7/1 3/6/1
f 9/13/2 10/14/2 8/12/2 7/11/2
f 15/22/3 16/23/3 6/10/3 5/9/3
f 11/16/4 12/18/4 2/3/4 1/1/4
f 17/24/5 14/20/5 2/4/5 12/17/5
f 16/23/5 17/24/5 12/17/5 6/10/5
f 5/9/6 6/10/6 12/18/6 11/16/6
f 3/6/7 4/7/7 10/14/7 9/13/7
f 8/12/5 10/15/5 17/24/5 16/23/5
f 10/15/5 4/8/5 14/20/5 17/24/5
f 7/11/8 8/12/8 16/23/8 15/22/8
f 1/2/9 2/5/9 14/21/9 13/19/9
f 30/43/10 31/45/10 21/31/10 20/30/10
f 26/37/11 27/38/11 25/36/11 24/35/11
f 32/46/12 33/47/12 23/34/12 22/33/12
f 28/40/13 29/42/13 19/27/13 18/25/13
f 34/48/14 31/44/14 19/28/14 29/41/14
f 33/47/14 34/48/14 29/41/14 23/34/14
f 22/33/15 23/34/15 29/42/15 28/40/15
f 20/30/16 21/31/16 27/38/16 26/37/16
f 25/36/14 27/39/14 34/48/14 33/47/14
f 27/39/14 21/32/14 31/44/14 34/48/14
f 24/35/17 25/36/17 33/47/17 32/46/17
f 18/26/18 19/29/18 31/45/18 30/43/18
f 22/33/19 28/40/19 11/16/19 1/1/19
f 28/40/20 18/25/20 5/9/20 11/16/20
f 18/26/21 30/43/21 15/22/21 5/9/21
f 30/43/22 20/30/22 7/11/22 15/22/22
f 20/30/23 26/37/23 9/13/23 7/11/23
f 26/37/24 24/35/24 3/6/24 9/13/24
f 24/35/25 32/46/25 13/19/25 3/6/25
f 32/46/26 22/33/26 1/2/26 13/19/26
