# Blender v2.82 (sub 7) OBJ File: 'untitled.blend'
# www.blender.org
mtllib halfcross.mtl
o Cube
v 1.000000 1.000000 -0.792581
v 1.000000 -1.000000 -1.000000
v 1.000000 1.000000 1.000000
v 1.000000 -1.000000 1.000000
v -1.000000 1.000000 -1.000000
v -1.000000 -1.000000 -1.000000
v -1.000000 1.000000 1.000000
v -1.000000 -1.000000 1.000000
v 1.000000 3.376347 1.000000
v -1.000000 3.376347 1.000000
v 1.000000 3.376347 -0.792581
v -1.000000 3.376347 -1.000000
v -0.685745 1.000000 -4.030154
v 1.314255 1.000000 -3.822736
v -0.685745 3.376347 -4.030154
v 1.314255 3.376347 -3.822736
v 1.000000 1.000000 3.837183
v -1.000000 1.000000 3.837183
v 1.000000 3.376347 3.837183
v -1.000000 3.376347 3.837183
vt 0.625000 0.250000
vt 0.625000 0.000000
vt 0.625000 0.000000
vt 0.625000 0.250000
vt 0.375000 0.750000
vt 0.625000 0.750000
vt 0.625000 1.000000
vt 0.375000 1.000000
vt 0.375000 0.000000
vt 0.375000 0.250000
vt 0.125000 0.500000
vt 0.375000 0.500000
vt 0.125000 0.750000
vt 0.625000 0.500000
vt 0.625000 0.500000
vt 0.875000 0.500000
vt 0.875000 0.750000
vt 0.625000 0.750000
vt 0.625000 0.500000
vt 0.625000 0.500000
vt 0.625000 0.000000
vt 0.625000 0.000000
vt 0.625000 0.250000
vt 0.625000 0.250000
vt 0.875000 0.500000
vt 0.625000 1.000000
vt 0.625000 0.750000
vt 0.625000 0.750000
vt 0.625000 1.000000
vt 0.875000 0.750000
vn -1.0000 0.0000 0.0000
vn 0.0000 0.0000 1.0000
vn 0.0000 -1.0000 0.0000
vn 1.0000 0.0000 0.0000
vn 0.0517 0.0517 -0.9973
vn 0.0000 1.0000 0.0000
vn 0.9947 0.0000 0.1032
vn 0.1032 0.0000 -0.9947
vn -0.9947 0.0000 -0.1032
usemtl Material
s off
f 5/1/1 7/2/1 10/3/1 12/4/1
f 4/5/2 3/6/2 7/7/2 8/8/2
f 8/9/1 7/2/1 5/1/1 6/10/1
f 6/11/3 2/12/3 4/5/3 8/13/3
f 2/12/4 1/14/4 3/6/4 4/5/4
f 6/10/5 5/1/5 1/14/5 2/12/5
f 11/15/6 12/16/6 10/17/6 9/18/6
f 3/6/4 1/14/4 11/15/4 9/18/4
f 11/15/7 1/14/7 14/19/7 16/20/7
f 10/3/1 7/2/1 18/21/1 20/22/1
f 14/19/8 13/23/8 15/24/8 16/20/8
f 1/14/3 5/1/3 13/23/3 14/19/3
f 5/1/9 12/4/9 15/24/9 13/23/9
f 12/16/6 11/15/6 16/20/6 15/25/6
f 18/26/2 17/27/2 19/28/2 20/29/2
f 9/18/6 10/17/6 20/30/6 19/28/6
f 3/6/4 9/18/4 19/28/4 17/27/4
f 7/7/3 3/6/3 17/27/3 18/26/3
